<svg width="161" height="68" viewBox="0 0 161 68" fill="none" xmlns="http://www.w3.org/2000/svg">
<g clip-path="url(#clip0_1_608)">
<path d="M18.6025 24.0208C18.3 23.8086 17.9417 23.6918 17.5732 23.6851C17.2046 23.6784 16.8424 23.7821 16.5324 23.9832C16.2225 24.1842 15.9788 24.4735 15.8322 24.8143C15.6857 25.1551 15.6429 25.5321 15.7093 25.8974C15.7757 26.2627 15.9483 26.6 16.2052 26.8663C16.4621 27.1327 16.7917 27.3161 17.1523 27.3934C17.5128 27.4707 17.8881 27.4384 18.2303 27.3005C18.5726 27.1626 18.8665 26.9254 19.0748 26.619C19.3523 26.2108 19.4583 25.7086 19.3698 25.2219C19.2814 24.7352 19.0056 24.3035 18.6025 24.0208ZM18.6025 24.0208C18.3 23.8086 17.9417 23.6918 17.5732 23.6851C17.2046 23.6784 16.8424 23.7821 16.5324 23.9832C16.2225 24.1842 15.9788 24.4735 15.8322 24.8143C15.6857 25.1551 15.6429 25.5321 15.7093 25.8974C15.7757 26.2627 15.9483 26.6 16.2052 26.8663C16.4621 27.1327 16.7917 27.3161 17.1523 27.3934C17.5128 27.4707 17.8881 27.4384 18.2303 27.3005C18.5726 27.1626 18.8665 26.9254 19.0748 26.619C19.3523 26.2108 19.4583 25.7086 19.3698 25.2219C19.2814 24.7352 19.0056 24.3035 18.6025 24.0208ZM18.6025 24.0208C18.3 23.8086 17.9417 23.6918 17.5732 23.6851C17.2046 23.6784 16.8424 23.7821 16.5324 23.9832C16.2225 24.1842 15.9788 24.4735 15.8322 24.8143C15.6857 25.1551 15.6429 25.5321 15.7093 25.8974C15.7757 26.2627 15.9483 26.6 16.2052 26.8663C16.4621 27.1327 16.7917 27.3161 17.1523 27.3934C17.5128 27.4707 17.8881 27.4384 18.2303 27.3005C18.5726 27.1626 18.8665 26.9254 19.0748 26.619C19.3523 26.2108 19.4583 25.7086 19.3698 25.2219C19.2814 24.7352 19.0056 24.3035 18.6025 24.0208ZM18.6025 24.0208C18.3 23.8086 17.9417 23.6918 17.5732 23.6851C17.2046 23.6784 16.8424 23.7821 16.5324 23.9832C16.2225 24.1842 15.9788 24.4735 15.8322 24.8143C15.6857 25.1551 15.6429 25.5321 15.7093 25.8974C15.7757 26.2627 15.9483 26.6 16.2052 26.8663C16.4621 27.1327 16.7917 27.3161 17.1523 27.3934C17.5128 27.4707 17.8881 27.4384 18.2303 27.3005C18.5726 27.1626 18.8665 26.9254 19.0748 26.619C19.3523 26.2108 19.4583 25.7086 19.3698 25.2219C19.2814 24.7352 19.0056 24.3035 18.6025 24.0208ZM18.6025 24.0208C18.3 23.8086 17.9417 23.6918 17.5732 23.6851C17.2046 23.6784 16.8424 23.7821 16.5324 23.9832C16.2225 24.1842 15.9788 24.4735 15.8322 24.8143C15.6857 25.1551 15.6429 25.5321 15.7093 25.8974C15.7757 26.2627 15.9483 26.6 16.2052 26.8663C16.4621 27.1327 16.7917 27.3161 17.1523 27.3934C17.5128 27.4707 17.8881 27.4384 18.2303 27.3005C18.5726 27.1626 18.8665 26.9254 19.0748 26.619C19.3523 26.2108 19.4583 25.7086 19.3698 25.2219C19.2814 24.7352 19.0056 24.3035 18.6025 24.0208ZM18.6025 24.0208C18.3 23.8086 17.9417 23.6918 17.5732 23.6851C17.2046 23.6784 16.8424 23.7821 16.5324 23.9832C16.2225 24.1842 15.9788 24.4735 15.8322 24.8143C15.6857 25.1551 15.6429 25.5321 15.7093 25.8974C15.7757 26.2627 15.9483 26.6 16.2052 26.8663C16.4621 27.1327 16.7917 27.3161 17.1523 27.3934C17.5128 27.4707 17.8881 27.4384 18.2303 27.3005C18.5726 27.1626 18.8665 26.9254 19.0748 26.619C19.3523 26.2108 19.4583 25.7086 19.3698 25.2219C19.2814 24.7352 19.0056 24.3035 18.6025 24.0208ZM18.6025 24.0208C18.3 23.8086 17.9417 23.6918 17.5732 23.6851C17.2046 23.6784 16.8424 23.7821 16.5324 23.9832C16.2225 24.1842 15.9788 24.4735 15.8322 24.8143C15.6857 25.1551 15.6429 25.5321 15.7093 25.8974C15.7757 26.2627 15.9483 26.6 16.2052 26.8663C16.4621 27.1327 16.7917 27.3161 17.1523 27.3934C17.5128 27.4707 17.8881 27.4384 18.2303 27.3005C18.5726 27.1626 18.8665 26.9254 19.0748 26.619C19.3523 26.2108 19.4583 25.7086 19.3698 25.2219C19.2814 24.7352 19.0056 24.3035 18.6025 24.0208ZM18.6025 24.0208C18.3 23.8086 17.9417 23.6918 17.5732 23.6851C17.2046 23.6784 16.8424 23.7821 16.5324 23.9832C16.2225 24.1842 15.9788 24.4735 15.8322 24.8143C15.6857 25.1551 15.6429 25.5321 15.7093 25.8974C15.7757 26.2627 15.9483 26.6 16.2052 26.8663C16.4621 27.1327 16.7917 27.3161 17.1523 27.3934C17.5128 27.4707 17.8881 27.4384 18.2303 27.3005C18.5726 27.1626 18.8665 26.9254 19.0748 26.619C19.3523 26.2108 19.4583 25.7086 19.3698 25.2219C19.2814 24.7352 19.0056 24.3035 18.6025 24.0208ZM18.6025 24.0208C18.3 23.8086 17.9417 23.6918 17.5732 23.6851C17.2046 23.6784 16.8424 23.7821 16.5324 23.9832C16.2225 24.1842 15.9788 24.4735 15.8322 24.8143C15.6857 25.1551 15.6429 25.5321 15.7093 25.8974C15.7757 26.2627 15.9483 26.6 16.2052 26.8663C16.4621 27.1327 16.7917 27.3161 17.1523 27.3934C17.5128 27.4707 17.8881 27.4384 18.2303 27.3005C18.5726 27.1626 18.8665 26.9254 19.0748 26.619C19.3523 26.2108 19.4583 25.7086 19.3698 25.2219C19.2814 24.7352 19.0056 24.3035 18.6025 24.0208ZM18.6025 24.0208C18.3 23.8086 17.9417 23.6918 17.5732 23.6851C17.2046 23.6784 16.8424 23.7821 16.5324 23.9832C16.2225 24.1842 15.9788 24.4735 15.8322 24.8143C15.6857 25.1551 15.6429 25.5321 15.7093 25.8974C15.7757 26.2627 15.9483 26.6 16.2052 26.8663C16.4621 27.1327 16.7917 27.3161 17.1523 27.3934C17.5128 27.4707 17.8881 27.4384 18.2303 27.3005C18.5726 27.1626 18.8665 26.9254 19.0748 26.619C19.3523 26.2108 19.4583 25.7086 19.3698 25.2219C19.2814 24.7352 19.0056 24.3035 18.6025 24.0208ZM18.6025 24.0208C18.3 23.8086 17.9417 23.6918 17.5732 23.6851C17.2046 23.6784 16.8424 23.7821 16.5324 23.9832C16.2225 24.1842 15.9788 24.4735 15.8322 24.8143C15.6857 25.1551 15.6429 25.5321 15.7093 25.8974C15.7757 26.2627 15.9483 26.6 16.2052 26.8663C16.4621 27.1327 16.7917 27.3161 17.1523 27.3934C17.5128 27.4707 17.8881 27.4384 18.2303 27.3005C18.5726 27.1626 18.8665 26.9254 19.0748 26.619C19.3523 26.2108 19.4583 25.7086 19.3698 25.2219C19.2814 24.7352 19.0056 24.3035 18.6025 24.0208ZM18.6025 24.0208C18.3 23.8086 17.9417 23.6918 17.5732 23.6851C17.2046 23.6784 16.8424 23.7821 16.5324 23.9832C16.2225 24.1842 15.9788 24.4735 15.8322 24.8143C15.6857 25.1551 15.6429 25.5321 15.7093 25.8974C15.7757 26.2627 15.9483 26.6 16.2052 26.8663C16.4621 27.1327 16.7917 27.3161 17.1523 27.3934C17.5128 27.4707 17.8881 27.4384 18.2303 27.3005C18.5726 27.1626 18.8665 26.9254 19.0748 26.619C19.3523 26.2108 19.4583 25.7086 19.3698 25.2219C19.2814 24.7352 19.0056 24.3035 18.6025 24.0208ZM28.5532 7.88943C25.8487 4.26978 21.2724 2.45678 14.8244 2.45044H0V29.7691C1.36274 28.8748 2.95468 28.4002 4.58097 28.4034C6.3468 28.4002 8.0693 28.9543 9.50668 29.9878C10.9441 31.0213 12.0241 32.4824 12.5953 34.166C13.8637 33.3557 15.3247 32.9034 16.8258 32.8564C18.3269 32.8093 19.813 33.1693 21.1289 33.8986C22.4448 34.6279 23.5422 35.6998 24.3066 37.0024C25.0709 38.305 25.4741 39.7905 25.474 41.3038C25.4729 42.1087 25.36 42.9096 25.1387 43.683C30.1353 40.1617 32.6335 33.4554 32.6335 23.564C32.6209 16.7435 31.2608 11.5186 28.5532 7.88943ZM6.13945 27.8419C8.83136 25.4626 11.018 24.2968 12.1986 24.825C11.0935 25.9956 9.93174 27.2947 8.73219 28.708C7.91611 28.2895 7.04202 27.9975 6.13945 27.8419ZM20.6711 32.9002C20.1899 32.6936 19.6902 32.5343 19.1787 32.4244C19.5376 31.7106 19.8682 30.9968 20.1846 30.3449C20.6522 30.797 20.8033 31.6868 20.6711 32.9002ZM19.939 30.1546C19.6132 30.8588 19.259 31.5821 18.8906 32.334C16.8666 31.9239 14.7644 32.2157 12.9259 33.1619C12.8551 33.0002 12.7842 32.8526 12.7087 32.6861C11.8799 31.0575 10.5873 29.7153 8.99666 28.8317C10.182 27.4041 11.358 26.1336 12.4442 24.9678C14.8905 22.3744 17.0818 20.4281 18.8339 19.3004C19.9082 20.5705 21.2986 21.5296 22.8624 22.0793C22.4562 24.1541 21.4456 26.9188 19.939 30.1546ZM22.9852 21.4988C22.2964 21.2344 21.6416 20.8877 21.0347 20.4662C20.4229 20.0464 19.8619 19.5562 19.3629 19.0053C20.7183 18.2202 21.7667 17.9965 22.3995 18.4391C23.0324 18.8816 23.2024 19.9475 22.9852 21.4988ZM18.6167 24.0208C18.3142 23.8086 17.9559 23.6918 17.5873 23.6851C17.2188 23.6784 16.8565 23.7821 16.5466 23.9832C16.2366 24.1842 15.9929 24.4735 15.8464 24.8143C15.6998 25.1551 15.657 25.5321 15.7234 25.8974C15.7899 26.2627 15.9625 26.6 16.2194 26.8663C16.4763 27.1327 16.8059 27.3161 17.1665 27.3934C17.527 27.4707 17.9022 27.4384 18.2445 27.3005C18.5868 27.1626 18.8807 26.9254 19.089 26.619C19.365 26.209 19.4688 25.7056 19.3777 25.2188C19.2865 24.732 19.0078 24.3013 18.6025 24.0208H18.6167ZM18.6167 24.0208C18.3142 23.8086 17.9559 23.6918 17.5873 23.6851C17.2188 23.6784 16.8565 23.7821 16.5466 23.9832C16.2366 24.1842 15.9929 24.4735 15.8464 24.8143C15.6998 25.1551 15.657 25.5321 15.7234 25.8974C15.7899 26.2627 15.9625 26.6 16.2194 26.8663C16.4763 27.1327 16.8059 27.3161 17.1665 27.3934C17.527 27.4707 17.9022 27.4384 18.2445 27.3005C18.5868 27.1626 18.8807 26.9254 19.089 26.619C19.365 26.209 19.4688 25.7056 19.3777 25.2188C19.2865 24.732 19.0078 24.3013 18.6025 24.0208H18.6167ZM18.6167 24.0208C18.3142 23.8086 17.9559 23.6918 17.5873 23.6851C17.2188 23.6784 16.8565 23.7821 16.5466 23.9832C16.2366 24.1842 15.9929 24.4735 15.8464 24.8143C15.6998 25.1551 15.657 25.5321 15.7234 25.8974C15.7899 26.2627 15.9625 26.6 16.2194 26.8663C16.4763 27.1327 16.8059 27.3161 17.1665 27.3934C17.527 27.4707 17.9022 27.4384 18.2445 27.3005C18.5868 27.1626 18.8807 26.9254 19.089 26.619C19.365 26.209 19.4688 25.7056 19.3777 25.2188C19.2865 24.732 19.0078 24.3013 18.6025 24.0208H18.6167ZM18.6167 24.0208C18.3142 23.8086 17.9559 23.6918 17.5873 23.6851C17.2188 23.6784 16.8565 23.7821 16.5466 23.9832C16.2366 24.1842 15.9929 24.4735 15.8464 24.8143C15.6998 25.1551 15.657 25.5321 15.7234 25.8974C15.7899 26.2627 15.9625 26.6 16.2194 26.8663C16.4763 27.1327 16.8059 27.3161 17.1665 27.3934C17.527 27.4707 17.9022 27.4384 18.2445 27.3005C18.5868 27.1626 18.8807 26.9254 19.089 26.619C19.365 26.209 19.4688 25.7056 19.3777 25.2188C19.2865 24.732 19.0078 24.3013 18.6025 24.0208H18.6167ZM18.6167 24.0208C18.3142 23.8086 17.9559 23.6918 17.5873 23.6851C17.2188 23.6784 16.8565 23.7821 16.5466 23.9832C16.2366 24.1842 15.9929 24.4735 15.8464 24.8143C15.6998 25.1551 15.657 25.5321 15.7234 25.8974C15.7899 26.2627 15.9625 26.6 16.2194 26.8663C16.4763 27.1327 16.8059 27.3161 17.1665 27.3934C17.527 27.4707 17.9022 27.4384 18.2445 27.3005C18.5868 27.1626 18.8807 26.9254 19.089 26.619C19.365 26.209 19.4688 25.7056 19.3777 25.2188C19.2865 24.732 19.0078 24.3013 18.6025 24.0208H18.6167ZM18.6167 24.0208C18.3142 23.8086 17.9559 23.6918 17.5873 23.6851C17.2188 23.6784 16.8565 23.7821 16.5466 23.9832C16.2366 24.1842 15.9929 24.4735 15.8464 24.8143C15.6998 25.1551 15.657 25.5321 15.7234 25.8974C15.7899 26.2627 15.9625 26.6 16.2194 26.8663C16.4763 27.1327 16.8059 27.3161 17.1665 27.3934C17.527 27.4707 17.9022 27.4384 18.2445 27.3005C18.5868 27.1626 18.8807 26.9254 19.089 26.619C19.365 26.209 19.4688 25.7056 19.3777 25.2188C19.2865 24.732 19.0078 24.3013 18.6025 24.0208H18.6167ZM18.6167 24.0208C18.3142 23.8086 17.9559 23.6918 17.5873 23.6851C17.2188 23.6784 16.8565 23.7821 16.5466 23.9832C16.2366 24.1842 15.9929 24.4735 15.8464 24.8143C15.6998 25.1551 15.657 25.5321 15.7234 25.8974C15.7899 26.2627 15.9625 26.6 16.2194 26.8663C16.4763 27.1327 16.8059 27.3161 17.1665 27.3934C17.527 27.4707 17.9022 27.4384 18.2445 27.3005C18.5868 27.1626 18.8807 26.9254 19.089 26.619C19.365 26.209 19.4688 25.7056 19.3777 25.2188C19.2865 24.732 19.0078 24.3013 18.6025 24.0208H18.6167ZM18.6167 24.0208C18.3142 23.8086 17.9559 23.6918 17.5873 23.6851C17.2188 23.6784 16.8565 23.7821 16.5466 23.9832C16.2366 24.1842 15.9929 24.4735 15.8464 24.8143C15.6998 25.1551 15.657 25.5321 15.7234 25.8974C15.7899 26.2627 15.9625 26.6 16.2194 26.8663C16.4763 27.1327 16.8059 27.3161 17.1665 27.3934C17.527 27.4707 17.9022 27.4384 18.2445 27.3005C18.5868 27.1626 18.8807 26.9254 19.089 26.619C19.365 26.209 19.4688 25.7056 19.3777 25.2188C19.2865 24.732 19.0078 24.3013 18.6025 24.0208H18.6167ZM18.6167 24.0208C18.3142 23.8086 17.9559 23.6918 17.5873 23.6851C17.2188 23.6784 16.8565 23.7821 16.5466 23.9832C16.2366 24.1842 15.9929 24.4735 15.8464 24.8143C15.6998 25.1551 15.657 25.5321 15.7234 25.8974C15.7899 26.2627 15.9625 26.6 16.2194 26.8663C16.4763 27.1327 16.8059 27.3161 17.1665 27.3934C17.527 27.4707 17.9022 27.4384 18.2445 27.3005C18.5868 27.1626 18.8807 26.9254 19.089 26.619C19.365 26.209 19.4688 25.7056 19.3777 25.2188C19.2865 24.732 19.0078 24.3013 18.6025 24.0208H18.6167ZM18.6167 24.0208C18.3142 23.8086 17.9559 23.6918 17.5873 23.6851C17.2188 23.6784 16.8565 23.7821 16.5466 23.9832C16.2366 24.1842 15.9929 24.4735 15.8464 24.8143C15.6998 25.1551 15.657 25.5321 15.7234 25.8974C15.7899 26.2627 15.9625 26.6 16.2194 26.8663C16.4763 27.1327 16.8059 27.3161 17.1665 27.3934C17.527 27.4707 17.9022 27.4384 18.2445 27.3005C18.5868 27.1626 18.8807 26.9254 19.089 26.619C19.365 26.209 19.4688 25.7056 19.3777 25.2188C19.2865 24.732 19.0078 24.3013 18.6025 24.0208H18.6167ZM18.6167 24.0208C18.3142 23.8086 17.9559 23.6918 17.5873 23.6851C17.2188 23.6784 16.8565 23.7821 16.5466 23.9832C16.2366 24.1842 15.9929 24.4735 15.8464 24.8143C15.6998 25.1551 15.657 25.5321 15.7234 25.8974C15.7899 26.2627 15.9625 26.6 16.2194 26.8663C16.4763 27.1327 16.8059 27.3161 17.1665 27.3934C17.527 27.4707 17.9022 27.4384 18.2445 27.3005C18.5868 27.1626 18.8807 26.9254 19.089 26.619C19.365 26.209 19.4688 25.7056 19.3777 25.2188C19.2865 24.732 19.0078 24.3013 18.6025 24.0208H18.6167Z" fill="#7B16EB"/>
<path d="M46.8251 54.4802V55.884H40.7659V60.3332H45.9609V61.737H40.7659V67.2045H39.0422V54.4802H46.8251Z" fill="#303036"/>
<path d="M61.5173 58.0681C62.1218 58.0591 62.7221 58.1707 63.2836 58.3965C63.7952 58.6095 64.2533 58.9346 64.6248 59.3482C65.0014 59.7728 65.2889 60.2697 65.4702 60.809C65.8604 62.0556 65.8604 63.3931 65.4702 64.6397C65.289 65.1776 65.0014 65.673 64.6248 66.0958C64.2525 66.5025 63.7941 66.8197 63.2836 67.0237C62.145 67.4553 60.8896 67.4553 59.751 67.0237C59.2391 66.8197 58.7792 66.5026 58.4051 66.0958C58.0255 65.6735 57.7348 65.1782 57.5503 64.6397C57.1535 63.3941 57.1535 62.0546 57.5503 60.809C57.7348 60.2691 58.0255 59.7722 58.4051 59.3482C58.7783 58.9345 59.238 58.6095 59.751 58.3965C60.3125 58.1707 60.9128 58.0591 61.5173 58.0681ZM61.5173 66.0958C61.894 66.1222 62.2714 66.0543 62.6158 65.8982C62.9602 65.7422 63.261 65.5027 63.4914 65.2012C63.9185 64.4397 64.1429 63.5799 64.1429 62.7053C64.1429 61.8307 63.9185 60.9709 63.4914 60.2095C63.2621 59.9064 62.9617 59.6656 62.6171 59.5086C62.2725 59.3516 61.8946 59.2834 61.5173 59.3101C61.1176 59.2991 60.7206 59.3788 60.3555 59.5433C60.0296 59.6931 59.7457 59.922 59.5291 60.2095C59.3035 60.5317 59.143 60.8955 59.0568 61.2801C58.9423 61.7471 58.8867 62.2267 58.8915 62.7077C58.8861 63.1887 58.9417 63.6684 59.0568 64.1353C59.1421 64.5173 59.3027 64.8781 59.5291 65.1964C59.746 65.4824 60.03 65.7097 60.3555 65.8578C60.7202 66.0239 61.1172 66.1052 61.5173 66.0958Z" fill="#303036"/>
<path d="M78.807 58.1965V63.9305C78.7723 64.4971 78.9398 65.0574 79.2792 65.5104C79.4569 65.707 79.6771 65.8599 79.9228 65.9573C80.1684 66.0546 80.433 66.0938 80.696 66.0719C81.1493 66.0734 81.5958 65.9605 81.9947 65.7435C82.4195 65.5096 82.7987 65.2 83.114 64.8299V58.1965H84.6819V67.1901H83.7374C83.6391 67.1967 83.5418 67.167 83.4636 67.1066C83.3854 67.0462 83.3316 66.9592 83.3124 66.8618L83.1896 65.9101C82.818 66.3306 82.377 66.6832 81.8861 66.9522C81.3752 67.2219 80.8051 67.3577 80.2285 67.3472C79.7868 67.3558 79.348 67.2732 78.9392 67.1045C78.5773 66.9482 78.2546 66.7125 77.9947 66.4145C77.7335 66.0997 77.5404 65.7334 77.4279 65.3391C77.2967 64.8863 77.2331 64.4164 77.239 63.9448V58.1965H78.807Z" fill="#303036"/>
<path d="M96.9939 67.2045V58.1966H97.9384C98.0367 58.1901 98.1341 58.2198 98.2123 58.2802C98.2905 58.3406 98.3442 58.4276 98.3635 58.525L98.4863 59.4767C98.8583 59.0573 99.2973 58.7035 99.785 58.4298C100.296 58.1553 100.868 58.0177 101.447 58.0301C101.889 58.0214 102.328 58.104 102.737 58.2728C103.102 58.4256 103.425 58.6637 103.681 58.9675C103.936 59.303 104.118 59.6889 104.215 60.1C104.35 60.552 104.415 61.0223 104.408 61.4943V67.2045H102.841V61.4943C102.875 60.9248 102.708 60.3616 102.368 59.9049C102.191 59.7083 101.97 59.5554 101.725 59.458C101.479 59.3607 101.215 59.3215 100.951 59.3434C100.497 59.3419 100.05 59.4583 99.6528 59.6813C99.2364 59.9137 98.8626 60.2162 98.5477 60.5759V67.1997L96.9939 67.2045Z" fill="#303036"/>
<path d="M122.827 67.2043C122.728 67.213 122.63 67.1841 122.551 67.1234C122.472 67.0626 122.419 66.9743 122.402 66.876L122.26 65.7863C121.895 66.237 121.452 66.6174 120.952 66.9093C120.436 67.1954 119.855 67.3398 119.266 67.3281C118.786 67.3341 118.31 67.2333 117.873 67.033C117.452 66.8316 117.086 66.5313 116.805 66.1575C116.492 65.7288 116.261 65.2445 116.125 64.7299C115.96 64.0819 115.88 63.4147 115.889 62.7456C115.885 62.1187 115.974 61.4948 116.154 60.8945C116.312 60.356 116.57 59.8523 116.914 59.4099C117.242 58.9944 117.656 58.6566 118.128 58.4201C118.632 58.1719 119.187 58.0479 119.748 58.0585C120.235 58.0436 120.719 58.1396 121.164 58.3392C121.559 58.5291 121.912 58.796 122.203 59.1244V54.1279H123.771V67.2043H122.827ZM119.8 66.048C120.271 66.0602 120.736 65.9381 121.141 65.6959C121.556 65.433 121.916 65.0921 122.203 64.6918V60.3426C121.962 59.9926 121.637 59.7094 121.259 59.5193C120.899 59.3601 120.509 59.2806 120.116 59.2862C119.748 59.2664 119.38 59.3376 119.045 59.4935C118.71 59.6494 118.418 59.8853 118.194 60.1808C117.704 60.938 117.469 61.8339 117.523 62.7361C117.516 63.2431 117.566 63.7493 117.674 64.2445C117.753 64.6128 117.902 64.962 118.114 65.2724C118.295 65.5317 118.543 65.7359 118.831 65.8624C119.138 65.9913 119.468 66.0545 119.8 66.048Z" fill="#303036"/>
<path d="M139.672 58.0681C140.179 58.063 140.683 58.155 141.155 58.3393C141.596 58.5135 141.995 58.7794 142.327 59.1197C142.668 59.4808 142.931 59.9105 143.096 60.3807C143.289 60.9289 143.384 61.5074 143.375 62.089C143.389 62.2597 143.362 62.4312 143.295 62.5887C143.26 62.6331 143.214 62.6678 143.162 62.6895C143.11 62.7111 143.053 62.719 142.997 62.7124H137.056C137.059 63.2161 137.137 63.7165 137.288 64.197C137.409 64.5836 137.606 64.9414 137.868 65.2487C138.108 65.525 138.409 65.7403 138.747 65.8768C139.112 66.0204 139.502 66.0915 139.894 66.0862C140.238 66.0923 140.58 66.0458 140.91 65.9482C141.163 65.871 141.41 65.7723 141.647 65.6531C141.854 65.5437 142.024 65.4438 142.161 65.3534C142.266 65.2754 142.39 65.2276 142.52 65.2154C142.579 65.2128 142.637 65.2255 142.689 65.2522C142.741 65.2789 142.785 65.3186 142.818 65.3676L143.262 65.9434C143.063 66.1858 142.827 66.3947 142.563 66.562C142.292 66.7386 142.002 66.8824 141.699 66.9903C141.392 67.1046 141.076 67.189 140.754 67.2425C140.431 67.2989 140.104 67.3276 139.776 67.3281C139.193 67.3347 138.615 67.228 138.072 67.0141C137.56 66.8092 137.099 66.4941 136.721 66.0909C136.327 65.6562 136.026 65.1443 135.838 64.5872C135.616 63.9238 135.509 63.2268 135.521 62.5268C135.517 61.928 135.612 61.3327 135.805 60.7661C135.983 60.2397 136.264 59.7545 136.631 59.3386C136.995 58.9296 137.443 58.6049 137.944 58.3869C138.492 58.1614 139.081 58.0528 139.672 58.0681ZM139.71 59.2291C139.383 59.2114 139.056 59.2609 138.748 59.3746C138.44 59.4883 138.159 59.6638 137.92 59.8906C137.458 60.397 137.172 61.0421 137.108 61.7274H141.963C141.967 61.3854 141.918 61.0449 141.817 60.7185C141.723 60.4277 141.572 60.159 141.373 59.9286C141.179 59.7049 140.936 59.529 140.664 59.4147C140.362 59.2869 140.038 59.2237 139.71 59.2291Z" fill="#303036"/>
<path d="M155.12 67.2043V58.1965H156.022C156.147 58.1831 156.271 58.2171 156.372 58.2916C156.449 58.3879 156.495 58.5059 156.504 58.6295L156.613 60.0332C156.872 59.4608 157.26 58.9573 157.746 58.5629C158.196 58.2099 158.753 58.0234 159.323 58.0347C159.55 58.0316 159.776 58.0604 159.994 58.1203C160.189 58.1737 160.376 58.2521 160.551 58.3535L160.348 59.5384C160.337 59.6022 160.303 59.6596 160.252 59.6999C160.202 59.7402 160.139 59.7606 160.074 59.7572C159.945 59.7468 159.818 59.7196 159.697 59.6763C159.467 59.624 159.232 59.6063 158.998 59.624C158.497 59.6046 158.007 59.7743 157.623 60.0999C157.213 60.4853 156.899 60.9631 156.707 61.4941V67.2043H155.12Z" fill="#303036"/>
<path d="M47.2549 5.07705C47.2578 5.68466 47.1288 6.28558 46.877 6.83771C46.3802 7.92903 45.4956 8.79319 44.3976 9.25979C43.8259 9.50517 43.2103 9.62986 42.5889 9.62619C41.9828 9.62837 41.383 9.5036 40.8273 9.25979C39.7472 8.78829 38.8836 7.92324 38.4093 6.83771C38.1643 6.28387 38.0403 5.68341 38.0457 5.07705C38.0397 4.45067 38.1636 3.82994 38.4093 3.25454C38.867 2.15102 39.7348 1.27154 40.8273 0.803905C41.3819 0.556304 41.9823 0.429796 42.5889 0.432726C43.2108 0.428368 43.8269 0.554796 44.3976 0.803905C45.5079 1.26635 46.3968 2.14491 46.877 3.25454C47.1295 3.82827 47.2583 4.44945 47.2549 5.07705ZM46.1781 13.8565V43.9827H38.976V13.8565H46.1781Z" fill="#303036"/>
<path d="M64.6532 12.9906C65.8687 12.9831 67.081 13.1173 68.266 13.3903C69.3431 13.6341 70.3822 14.0247 71.3546 14.5514H79.9546V17.2733C79.977 17.6576 79.8519 18.0358 79.6051 18.3297C79.2737 18.6316 78.8549 18.8184 78.4103 18.8626L75.7278 19.3385C75.9318 19.8628 76.0899 20.4042 76.2001 20.9564C76.3076 21.5466 76.3613 22.1455 76.3606 22.7456C76.381 24.1441 76.0752 25.5278 75.468 26.7856C74.8862 27.9773 74.051 29.0252 73.0217 29.8548C71.9182 30.7307 70.6627 31.3923 69.3191 31.8058C67.8153 32.2784 66.2473 32.5112 64.6721 32.4958C63.5622 32.4982 62.4548 32.3898 61.3662 32.1722C60.4217 32.7432 59.9494 33.3761 59.9494 34.0756C59.9422 34.3561 60.0172 34.6326 60.165 34.8704C60.3128 35.1082 60.527 35.2969 60.7806 35.4128C61.4709 35.7357 62.21 35.9399 62.9672 36.0171C63.8692 36.1313 64.894 36.2074 66.0416 36.236C67.1892 36.2645 68.3652 36.3264 69.5695 36.4263C70.7533 36.5232 71.93 36.6948 73.0926 36.9402C74.1738 37.1596 75.2132 37.5516 76.1717 38.1013C77.0677 38.6231 77.8182 39.3646 78.3536 40.2569C78.9482 41.3273 79.236 42.5431 79.1848 43.7687C79.1784 45.1204 78.8444 46.4501 78.2119 47.6422C77.5123 48.9423 76.5464 50.0777 75.3783 50.9731C74.0147 52.024 72.4808 52.829 70.8446 53.3524C68.8587 53.9793 66.7859 54.2814 64.7051 54.247C62.7143 54.2806 60.7274 54.0583 58.7924 53.5856C57.3214 53.2298 55.9177 52.6352 54.6364 51.8249C53.6311 51.1824 52.7886 50.3123 52.1759 49.2839C51.6461 48.3746 51.3642 47.3404 51.3589 46.286C51.3218 44.9809 51.7813 43.7109 52.6435 42.7361C53.6256 41.6933 54.8443 40.9063 56.1949 40.4425C55.4779 40.0509 54.8679 39.487 54.4192 38.8008C53.9385 37.9957 53.7052 37.0651 53.7486 36.1265C53.752 35.6524 53.8301 35.1818 53.98 34.7323C54.15 34.2242 54.3917 33.7434 54.6978 33.3047C55.0422 32.8086 55.4485 32.3592 55.9068 31.9676C56.4322 31.5226 57.0095 31.1439 57.6259 30.8398C56.1721 30.0733 54.9416 28.9384 54.0555 27.5469C53.1697 26.102 52.7186 24.4293 52.7568 22.7313C52.7481 21.3333 53.0651 19.9528 53.6824 18.7008C54.2707 17.5011 55.1159 16.448 56.1571 15.6173C57.2829 14.7313 58.5648 14.0678 59.9352 13.6616C61.466 13.2027 63.0562 12.9766 64.6532 12.9906ZM72.5731 45.0059C72.5915 44.4791 72.4032 43.9662 72.0489 43.5784C71.6536 43.1767 71.1674 42.8778 70.6321 42.7076C69.9435 42.4862 69.2347 42.3347 68.5163 42.2555C67.7134 42.1556 66.8587 42.0842 65.9519 42.0366L63.1561 41.8891C62.2116 41.8368 61.267 41.7559 60.3744 41.6369C59.6203 42.0366 58.9512 42.5814 58.4051 43.2405C57.9155 43.8385 57.6527 44.5924 57.6636 45.3676C57.6603 45.8889 57.7956 46.4016 58.0556 46.8523C58.3623 47.3523 58.7938 47.7625 59.3071 48.0419C60.0056 48.4156 60.7577 48.6773 61.5362 48.8175C62.6422 49.0208 63.7652 49.1148 64.8893 49.0983C66.0522 49.1141 67.2137 49.0105 68.3557 48.789C69.1971 48.631 70.0094 48.3437 70.7643 47.9372C71.3137 47.6256 71.774 47.1766 72.1008 46.6334C72.4018 46.1441 72.565 45.5815 72.5731 45.0059ZM64.6768 27.8753C65.4697 27.8907 66.2592 27.7667 67.0098 27.5089C67.6236 27.2941 68.1842 26.9484 68.6533 26.4953C69.0972 26.0595 69.4364 25.5273 69.645 24.9392C69.8736 24.2984 69.9871 23.6216 69.9803 22.9407C70.0125 22.2911 69.9113 21.6417 69.6829 21.0333C69.4546 20.425 69.1041 19.8707 68.6533 19.4051C67.7686 18.5359 66.4431 18.0997 64.6768 18.0965C62.9105 18.0933 61.585 18.5295 60.7003 19.4051C60.2486 19.87 59.8974 20.4242 59.669 21.0327C59.4406 21.6413 59.3399 22.2909 59.3732 22.9407C59.366 23.6124 59.4797 24.2798 59.7086 24.9107C59.9209 25.5011 60.2595 26.0372 60.7003 26.481C61.1702 26.9435 61.7365 27.2946 62.358 27.5089C63.0978 27.7554 63.8741 27.8729 64.6532 27.8562L64.6768 27.8753Z" fill="#303036"/>
<path d="M93.211 5.07701C93.2162 5.68487 93.0872 6.2863 92.8332 6.83767C92.5884 7.37212 92.2473 7.85616 91.8272 8.26523C91.4025 8.68248 90.9045 9.0165 90.3585 9.25025C89.7866 9.4951 89.1711 9.61978 88.5497 9.61665C87.9436 9.61924 87.3437 9.49445 86.7882 9.25025C85.7056 8.78234 84.8409 7.91613 84.3702 6.82815C84.1236 6.27462 83.998 5.6742 84.0018 5.0675C83.9975 4.4408 84.123 3.82006 84.3702 3.24498C84.824 2.13886 85.6931 1.25809 86.7882 0.794343C87.3427 0.546328 87.9431 0.419816 88.5497 0.423179C89.1716 0.419377 89.7876 0.545767 90.3585 0.794343C90.9042 1.02637 91.4023 1.35879 91.8272 1.7746C92.2524 2.19569 92.5939 2.69477 92.8332 3.24498C93.0892 3.8209 93.2182 4.44598 93.211 5.07701ZM92.1342 13.8565V43.9827H84.9369V13.8565H92.1342Z" fill="#303036"/>
<path d="M110.085 44.454C107.5 44.454 105.509 43.7148 104.111 42.2365C102.713 40.7582 102.014 38.7168 102.014 36.1123V19.2862H98.9821C98.7855 19.2934 98.5897 19.258 98.4078 19.1823C98.226 19.1067 98.0624 18.9927 97.9281 18.8479C97.7938 18.703 97.6919 18.5309 97.6293 18.343C97.5667 18.1551 97.5449 17.9558 97.5653 17.7587V14.9036L102.373 14.1089L103.879 5.85286C103.937 5.49159 104.129 5.16624 104.418 4.94399C104.727 4.72102 105.101 4.60726 105.48 4.62041H109.211V14.1041H117.079V19.2719H109.211V35.5984C109.165 36.3947 109.414 37.1799 109.91 37.8016C110.143 38.0652 110.432 38.2732 110.754 38.4107C111.077 38.5481 111.426 38.6115 111.776 38.5963C112.157 38.6071 112.537 38.5524 112.9 38.4345C113.169 38.3407 113.431 38.2278 113.684 38.0966C113.91 37.9777 114.109 37.8682 114.283 37.7588C114.439 37.6558 114.621 37.5997 114.808 37.597C114.996 37.5884 115.181 37.6456 115.332 37.7588C115.498 37.8977 115.646 38.0576 115.771 38.2346L117.925 41.7559C116.857 42.6469 115.631 43.3251 114.312 43.7545C112.949 44.2146 111.522 44.4507 110.085 44.454Z" fill="#303036"/>
<path d="M146.246 43.9829H143.016C142.464 44.0118 141.913 43.9057 141.41 43.6736C141.19 43.5346 140.999 43.3528 140.849 43.1387C140.699 42.9247 140.593 42.6827 140.537 42.4269L139.894 40.2855C139.187 40.9299 138.443 41.5321 137.665 42.089C136.956 42.5971 136.2 43.0353 135.408 43.3976C134.614 43.7545 133.782 44.0195 132.929 44.1875C131.968 44.3724 130.992 44.4617 130.015 44.454C128.83 44.4656 127.652 44.2922 126.52 43.9401C125.504 43.6286 124.566 43.1031 123.767 42.3983C122.983 41.6951 122.37 40.8212 121.972 39.843C121.523 38.7137 121.304 37.5047 121.33 36.2884C121.342 35.1113 121.647 33.956 122.218 32.9289C122.937 31.6936 123.956 30.6622 125.179 29.931C126.888 28.9064 128.746 28.1582 130.685 27.7135C133.486 27.0657 136.35 26.7322 139.224 26.719V24.9536C139.224 22.9423 138.802 21.4497 137.958 20.4758C137.114 19.5019 135.885 19.0181 134.27 19.0245C133.283 18.999 132.298 19.1373 131.356 19.4337C130.653 19.6769 129.974 19.9876 129.33 20.3616C128.758 20.7042 128.23 21.0088 127.743 21.2848C127.254 21.5599 126.702 21.701 126.142 21.694C125.694 21.7075 125.253 21.5739 124.886 21.3133C124.539 21.0616 124.25 20.7369 124.041 20.3616L122.728 18.0394C126.11 14.8907 130.572 13.1852 135.177 13.2809C136.777 13.2539 138.366 13.5483 139.852 14.147C141.17 14.6895 142.357 15.5106 143.333 16.5548C144.305 17.6171 145.045 18.8735 145.505 20.2426C146.014 21.7548 146.264 23.3428 146.246 24.9393V43.9829ZM132.258 39.4623C132.943 39.4665 133.627 39.3979 134.298 39.2577C134.91 39.1249 135.503 38.9172 136.064 38.6391C136.63 38.355 137.166 38.0155 137.665 37.6255C138.219 37.1886 138.74 36.7114 139.224 36.198V31.1206C137.462 31.1854 135.706 31.3666 133.968 31.6631C132.798 31.8574 131.658 32.1978 130.572 32.6767C129.85 32.9805 129.223 33.4734 128.754 34.1042C128.4 34.6328 128.213 35.2561 128.215 35.8934C128.215 37.1624 128.588 38.0728 129.335 38.6248C130.197 39.2118 131.223 39.5053 132.263 39.4623H132.258Z" fill="#303036"/>
<path d="M161 0.347168V43.9828H153.803V0.347168H161Z" fill="#303036"/>
</g>
<defs>
<clipPath id="clip0_1_608">
<rect width="161" height="67" fill="white" transform="translate(0 0.347168)"/>
</clipPath>
</defs>
</svg>
