<svg width="282" height="190" viewBox="0 0 282 190" fill="none" xmlns="http://www.w3.org/2000/svg">
<mask id="mask0_1_501" style="mask-type:alpha" maskUnits="userSpaceOnUse" x="-37" y="0" width="319" height="264">
<g clip-path="url(#clip0_1_501)">
<path d="M239.144 221.895C236.476 221.278 233.703 221.613 231.22 222.851C231.713 219.315 231.395 215.697 230.293 212.331C229.192 208.966 227.344 205.961 224.92 203.598C222.496 201.234 219.574 199.587 216.427 198.809C213.28 198.032 210.008 198.149 206.915 199.15C210.611 192.807 212.102 185.183 211.11 177.7C210.117 170.216 206.709 163.383 201.521 158.474C196.332 153.564 189.717 150.913 182.908 151.014C176.098 151.115 169.559 153.961 164.508 159.022L168.656 39.4398L158.173 163.451C157.393 162.083 156.481 160.814 155.453 159.666L161.653 45.7606L149.873 155.313C148.469 154.583 146.993 154.038 145.476 153.688C142.16 152.924 138.725 153.124 135.503 154.269C135.467 151.16 134.733 148.108 133.367 145.39C132.001 142.671 130.047 140.373 127.681 138.704L138.044 61.7312L124.735 137.039C123.881 136.673 123.002 136.385 122.106 136.179C121.528 136.046 120.952 135.959 120.378 135.89L133.234 57.8211L117.14 135.881C116.913 135.903 116.676 135.918 116.447 135.951C114.607 130.484 111.756 125.504 108.077 121.333C104.398 117.162 99.9728 113.893 95.0883 111.737L115.558 35.1073L90.0283 109.959C89.6399 109.87 89.2515 109.78 88.8631 109.691C88.1162 109.518 87.3632 109.379 86.627 109.261L111.39 26.2219L80.9811 108.824C73.3606 108.879 65.9404 111.509 59.7069 116.363C53.4733 121.217 48.7218 128.066 46.0838 135.999C45.4995 135.818 44.9131 135.649 44.3156 135.511C38.421 134.153 32.2887 135.117 26.9727 138.237C21.6567 141.357 17.4891 146.438 15.1861 152.606C13.2874 152.545 11.3993 152.931 9.64649 153.74C7.89367 154.548 6.31591 155.761 5.01731 157.297C1.82491 153.604 -2.31137 151.089 -6.83034 150.093C-17.9044 147.539 -28.4771 154.074 -30.4429 164.68C-32.4087 175.285 -25.0408 185.958 -13.9518 188.515C-12.4014 188.872 -10.8226 189.055 -9.23968 189.06C0.455879 200.2 49.0968 218.125 108.819 231.898C162.651 244.313 209.374 249.642 227.499 246.232C228.938 247.795 230.685 248.964 232.6 249.648C234.516 250.332 236.548 250.511 238.534 250.171C240.521 249.831 242.409 248.981 244.047 247.69C245.685 246.398 247.029 244.699 247.971 242.729C248.914 240.759 249.43 238.571 249.478 236.339C249.526 234.106 249.105 231.891 248.248 229.869C247.392 227.847 246.123 226.074 244.542 224.69C242.962 223.305 241.113 222.348 239.144 221.895ZM57.8484 183.543C57.9346 183.442 58.0308 183.343 58.1181 183.236C58.2739 183.376 58.4287 183.521 58.5906 183.656L57.8484 183.543Z" fill="#F1F1F1"/>
</g>
</mask>
<g mask="url(#mask0_1_501)">
<rect x="-37" y="-22.0422" width="281" height="214.167" fill="#D9D9D9"/>
</g>
<defs>
<clipPath id="clip0_1_501">
<rect width="288.748" height="201.172" fill="white" transform="matrix(0.974424 0.224719 -0.182245 0.983253 0 0.545166)"/>
</clipPath>
</defs>
</svg>
