<svg width="105" height="163" viewBox="0 0 105 163" fill="none" xmlns="http://www.w3.org/2000/svg">
<g clip-path="url(#clip0_1_626)">
<path d="M62.9232 105.93C59.8603 113.604 48.8754 129.873 48.8754 129.873C59.6973 126.596 54.708 141.936 54.708 141.936C84.3615 102.825 62.9232 105.93 62.9232 105.93Z" fill="white"/>
<path d="M11.9316 126.782C11.9316 126.782 17.7131 111.731 24.0612 121.082C24.0612 121.082 25.7645 101.524 28.2154 93.6339C28.2154 93.6339 13.5203 77.7283 11.9316 126.782Z" fill="white"/>
<path d="M74.2862 48.7196C74.295 48.7005 74.302 48.6806 74.3073 48.6602C74.3225 48.5835 74.3193 48.5042 74.2977 48.429C74.2762 48.3537 74.237 48.2846 74.1834 48.2273C73.6348 45.1636 71.1128 28.7353 76.4888 12.4698C76.7937 12.5729 77.1268 12.5517 77.4155 12.4109C77.7042 12.2701 77.925 12.0211 78.0298 11.7182C78.1347 11.4153 78.115 11.0831 77.975 10.7939C77.8351 10.5048 77.5864 10.2822 77.2829 10.1747C76.9795 10.0673 76.6461 10.0836 76.3554 10.2201C76.0647 10.3567 75.8402 10.6025 75.731 10.9038C75.6217 11.2051 75.6365 11.5376 75.7722 11.8287C75.9079 12.1199 76.1534 12.346 76.4552 12.4579C70.4042 28.4591 58.1355 39.6141 55.7538 41.6773C55.5363 41.7341 55.4008 41.82 55.3534 41.9538C55.339 41.9776 55.3296 42.0042 55.3258 42.0318C54.2452 42.5566 44.5201 47.8241 36.433 70.6873C27.8501 94.9141 26.0061 120.88 26.0061 120.88L47.4615 128.481C47.4615 128.481 62.3478 107.127 70.9208 82.8927C79.0172 60.0746 74.8222 49.8507 74.2862 48.7196ZM61.195 55.5803C62.3043 55.9691 63.2738 56.677 63.9806 57.6143C64.6874 58.5516 65.0999 59.6762 65.1657 60.8456C65.2315 62.015 64.9477 63.1766 64.3503 64.1834C63.7529 65.1902 62.8687 65.9969 61.8097 66.5012C60.7507 67.0056 59.5645 67.185 58.4014 67.0168C57.2382 66.8485 56.1504 66.3401 55.2757 65.5559C54.401 64.7718 53.7787 63.7472 53.4877 62.6118C53.1966 61.4765 53.2499 60.2815 53.6408 59.1782C53.8974 58.4461 54.2965 57.7722 54.8154 57.1949C55.3342 56.6176 55.9626 56.1484 56.6644 55.8141C57.3662 55.4799 58.1277 55.2871 58.9051 55.247C59.6826 55.2069 60.4608 55.3201 61.195 55.5803ZM54.1763 75.3921C55.2835 75.7844 56.25 76.4947 56.9536 77.4334C57.6572 78.3721 58.0662 79.4969 58.1291 80.6656C58.1919 81.8343 57.9057 82.9944 57.3066 83.9993C56.7075 85.0041 55.8225 85.8085 54.7634 86.3108C53.7043 86.813 52.5187 86.9906 51.3566 86.8209C50.1945 86.6513 49.108 86.1422 48.2346 85.3579C47.3611 84.5736 46.74 83.5493 46.4496 82.4147C46.1593 81.28 46.2128 80.086 46.6034 78.9834C47.1272 77.505 48.2193 76.296 49.6395 75.6225C51.0597 74.949 52.6916 74.8661 54.1763 75.3921ZM43.217 106.327C42.1077 105.938 41.1383 105.23 40.4315 104.293C39.7246 103.356 39.3122 102.231 39.2464 101.062C39.1806 99.8923 39.4643 98.7306 40.0617 97.7238C40.6591 96.717 41.5433 95.9104 42.6023 95.406C43.6613 94.9016 44.8475 94.7222 46.0107 94.8905C47.1738 95.0588 48.2616 95.5672 49.1364 96.3513C50.0111 97.1355 50.6333 98.1601 50.9244 99.2954C51.2154 100.431 51.1621 101.626 50.7713 102.729C50.2475 104.195 49.1642 105.395 47.7565 106.068C46.3489 106.74 44.7303 106.832 43.2521 106.323L43.217 106.327Z" fill="white"/>
<path d="M41.9336 130.011C41.9336 130.011 41.9887 134.812 38.4437 138.332C38.4437 138.332 39.148 137.21 38.6048 136.348C38.501 136.185 38.3651 136.044 38.2052 135.935C37.0045 135.091 36.4265 141.24 29.6494 144.779C26.6175 137.769 30.0349 132.593 28.5603 132.522C28.3673 132.508 28.1734 132.532 27.9896 132.592C27.0312 132.926 26.8644 134.239 26.8644 134.239C26.3214 129.274 29.3826 125.577 29.3876 125.575L26.3572 124.501C26.3572 124.501 21.8089 130.001 22.6156 137.351C22.6156 137.351 22.8574 135.4 24.2866 134.911C24.5584 134.815 24.8469 134.775 25.1348 134.793C27.3156 134.921 22.2403 142.572 26.7513 152.971C36.8015 147.722 37.6621 138.582 39.441 139.857C39.6756 140.025 39.8744 140.237 40.0259 140.482C40.8321 141.763 39.7879 143.431 39.7879 143.431C45.0449 138.207 44.9626 131.088 44.9626 131.088L41.9336 130.011Z" fill="white"/>
</g>
<defs>
<clipPath id="clip0_1_626">
<rect width="56.7051" height="151.509" fill="white" transform="translate(50.5939 0.694336) rotate(19.5077)"/>
</clipPath>
</defs>
</svg>
