<svg width="156" height="156" viewBox="0 0 156 156" fill="none" xmlns="http://www.w3.org/2000/svg">
<g clip-path="url(#clip0_1_506)">
<path d="M38.554 60.4419C31.1655 47.6134 28.1166 21.5574 28.1166 21.5574C28.1166 21.5574 49.1195 37.2566 56.5105 50.0892C63.9015 62.9217 59.8373 65.161 54.8776 68.0213C49.9179 70.8816 45.945 73.2745 38.554 60.4419Z" fill="url(#paint0_linear_1_506)"/>
<path d="M42.6587 58.0775C35.2678 45.2449 28.1166 21.5574 28.1166 21.5574C28.1166 21.5574 45.0172 39.6252 52.4058 52.4536C59.7943 65.2821 57.572 66.4675 54.8776 68.0213C52.1832 69.5752 50.0473 70.9059 42.6587 58.0775Z" fill="url(#paint1_radial_1_506)"/>
<path d="M64.8463 45.2792C57.4578 32.4508 54.4154 6.39649 54.4154 6.39649C54.4154 6.39649 75.4183 22.0957 82.8093 34.9283C90.2003 47.7608 86.1362 50.0001 81.1764 52.8604C76.2167 55.7207 72.2438 58.1136 64.8463 45.2792Z" fill="url(#paint2_linear_1_506)"/>
<path d="M68.9511 42.9146C61.5601 30.082 54.4154 6.39627 54.4154 6.39627C54.4154 6.39627 71.316 24.464 78.7046 37.2925C86.0932 50.1209 83.87 51.3096 81.1764 52.8602C78.4829 54.4108 76.3396 55.743 68.9511 42.9146Z" fill="url(#paint3_radial_1_506)"/>
<path d="M50.3001 49.6376C42.1437 35.4759 37.4884 7.47054 37.4884 7.47054C37.4884 7.47054 59.3804 25.5437 67.5271 39.7028C75.6738 53.8618 71.778 56.0068 67.0163 58.7528C62.2547 61.4989 58.4566 63.7992 50.3001 49.6376Z" fill="url(#paint4_linear_1_506)"/>
<path d="M54.2407 47.3649C46.0842 33.2033 37.491 7.46066 37.491 7.46066C37.491 7.46066 55.4425 27.8064 63.5989 41.968C71.7554 56.1297 69.602 57.2533 67.0287 58.7456C64.4554 60.2378 62.3971 61.5266 54.2407 47.3649Z" fill="url(#paint5_radial_1_506)"/>
<path d="M61.8851 63.7299L45.9125 72.9413L44.6393 69.428L59.4854 60.8662L61.8851 63.7299Z" fill="url(#paint6_radial_1_506)"/>
<path d="M54.154 68.1913L52.3184 65.0042L51.8194 65.2919L53.6551 68.479L54.154 68.1913Z" fill="#5E5E5E"/>
<path d="M49.4826 66.6376L48.9338 66.9541L50.3523 70.3809L50.897 70.0668L49.4826 66.6376Z" fill="#5E5E5E"/>
<path d="M47.889 71.8014L46.4713 68.3713L45.9258 68.6887L47.3402 72.1179L47.889 71.8014Z" fill="#5E5E5E"/>
<path d="M57.4462 66.2871L55.1933 63.3442L54.6445 63.6607L56.9006 66.6044L57.4462 66.2871Z" fill="#5E5E5E"/>
<path d="M60.4574 64.5533L58.2022 61.6063L57.6534 61.9227L59.9087 64.8698L60.4574 64.5533Z" fill="#5E5E5E"/>
<path d="M90.0095 47.5106L74.0368 56.722L72.7636 53.2086L87.6089 44.6501L90.0095 47.5106Z" fill="url(#paint7_radial_1_506)"/>
<path d="M82.2692 51.9711L80.4335 48.7839L79.9346 49.0717L81.7702 52.2588L82.2692 51.9711Z" fill="#5E5E5E"/>
<path d="M77.6037 50.4175L77.0582 50.7348L78.4725 54.164L79.0213 53.8475L77.6037 50.4175Z" fill="#5E5E5E"/>
<path d="M76.0133 55.5821L74.5957 52.1521L74.0469 52.4686L75.4645 55.8986L76.0133 55.5821Z" fill="#5E5E5E"/>
<path d="M85.5697 50.0711L83.3177 47.125L82.7689 47.4414L85.0217 50.3843L85.5697 50.0711Z" fill="#5E5E5E"/>
<path d="M88.5818 48.3339L86.3257 45.3902L85.7778 45.7034L88.033 48.6504L88.5818 48.3339Z" fill="#5E5E5E"/>
<path d="M122.283 154.543C140.477 122.746 83.0371 58.4816 83.0371 58.4816L70.9703 65.4461L58.8978 72.4055C58.8978 72.4055 85.6638 154.357 122.283 154.543Z" fill="url(#paint8_radial_1_506)"/>
<path d="M122.283 154.543C127.108 146.113 126.612 135.399 123.282 124.206L95.5456 140.201C103.555 148.696 112.585 154.497 122.283 154.543Z" fill="url(#paint9_radial_1_506)"/>
<path d="M69.8015 99.411C76.4793 91.1831 59.4341 65.1434 59.4341 65.1434L52.4033 69.1843L45.3637 73.2578C45.3637 73.2578 50.7116 103.201 69.8015 99.411Z" fill="url(#paint10_radial_1_506)"/>
<path style="mix-blend-mode:multiply" d="M90.3818 82.7779C94.6743 86.4061 100.21 86.9125 102.747 83.9091C105.283 80.9056 103.86 75.5296 99.5672 71.9014C95.2748 68.2733 89.7389 67.7668 87.2024 70.7703C84.666 73.7737 86.0894 79.1497 90.3818 82.7779Z" fill="url(#paint11_radial_1_506)"/>
<path style="mix-blend-mode:multiply" d="M70.9396 92.0155C78.3576 95.3617 85.807 94.8896 87.5782 90.9612C89.3494 87.0328 84.7717 81.1356 77.3536 77.7894C69.9355 74.4433 62.4861 74.9153 60.7149 78.8438C58.9437 82.7722 63.5215 88.6694 70.9396 92.0155Z" fill="url(#paint12_radial_1_506)"/>
<path d="M100.921 81.4675C90.4581 83.1244 76.4846 55.3077 76.4846 55.3077L83.5154 51.2668L90.5344 47.2052C90.5344 47.2052 113.765 66.8349 100.921 81.4675Z" fill="url(#paint13_radial_1_506)"/>
<path d="M85.3606 90.4409C101.294 73.6035 75.4182 53.5803 75.4182 53.5803L66.9412 58.4745L58.4692 63.3631C58.4692 63.3631 62.8132 95.7955 85.3606 90.4409Z" fill="url(#paint14_radial_1_506)"/>
<path d="M92.6179 120.702C93.3698 126.139 98.3848 129.935 103.819 129.182C109.253 128.428 113.049 123.409 112.297 117.973C111.545 112.536 106.53 108.74 101.096 109.493C95.6618 110.247 91.8659 115.266 92.6179 120.702Z" fill="url(#paint15_linear_1_506)"/>
<path d="M93.2158 116.854C91.8417 121.966 94.8698 127.223 99.9791 128.597C105.088 129.97 110.344 126.939 111.718 121.827C113.092 116.715 110.064 111.457 104.955 110.084C99.8456 108.711 94.5898 111.742 93.2158 116.854Z" fill="url(#paint16_linear_1_506)"/>
<path d="M95.2807 117.409C94.2133 121.38 96.5655 125.464 100.534 126.531C104.503 127.597 108.586 125.243 109.653 121.272C110.721 117.301 108.369 113.217 104.4 112.15C100.431 111.083 96.348 113.438 95.2807 117.409Z" fill="url(#paint17_linear_1_506)"/>
<path d="M96.4617 122.804C98.3723 126.121 102.609 127.26 105.926 125.347C109.242 123.435 110.381 119.195 108.471 115.878C106.56 112.561 102.323 111.422 99.0068 113.334C95.6905 115.247 94.551 119.486 96.4617 122.804Z" fill="url(#paint18_radial_1_506)"/>
<path d="M99.6882 127.381C99.6027 127.699 99.7912 128.027 100.109 128.112C100.427 128.198 100.754 128.009 100.84 127.691C100.925 127.373 100.737 127.045 100.419 126.96C100.101 126.875 99.7737 127.063 99.6882 127.381Z" fill="url(#paint19_radial_1_506)"/>
<path d="M99.7696 127.403C99.6962 127.676 99.858 127.957 100.131 128.031C100.404 128.104 100.685 127.942 100.758 127.669C100.832 127.396 100.67 127.115 100.397 127.041C100.124 126.968 99.843 127.13 99.7696 127.403Z" fill="url(#paint20_radial_1_506)"/>
<path d="M94.8207 123.062C94.9223 123.004 95.0389 122.978 95.1556 122.986C95.2724 122.994 95.3841 123.036 95.4767 123.108C95.5694 123.179 95.6387 123.277 95.6761 123.388C95.7135 123.499 95.7173 123.618 95.6869 123.731C95.6565 123.844 95.5933 123.946 95.5053 124.023C95.4174 124.1 95.3085 124.15 95.1925 124.165C95.0765 124.181 94.9585 124.162 94.8534 124.11C94.7484 124.059 94.6609 123.977 94.602 123.876C94.5626 123.808 94.537 123.733 94.5267 123.656C94.5164 123.578 94.5215 123.499 94.5419 123.424C94.5622 123.348 94.5973 123.277 94.6452 123.215C94.693 123.153 94.7527 123.101 94.8207 123.062Z" fill="url(#paint21_radial_1_506)"/>
<path d="M94.8644 123.133C94.9522 123.083 95.0528 123.06 95.1536 123.067C95.2545 123.074 95.3509 123.111 95.4309 123.173C95.5108 123.235 95.5707 123.319 95.603 123.415C95.6353 123.51 95.6385 123.614 95.6123 123.711C95.586 123.809 95.5315 123.897 95.4555 123.963C95.3796 124.03 95.2856 124.073 95.1854 124.086C95.0853 124.099 94.9834 124.083 94.8926 124.038C94.8019 123.994 94.7263 123.924 94.6754 123.836C94.6076 123.718 94.5893 123.578 94.6248 123.446C94.6602 123.314 94.7464 123.202 94.8644 123.133Z" fill="url(#paint22_radial_1_506)"/>
<path d="M94.4296 116.566C94.5436 116.597 94.6459 116.66 94.7236 116.749C94.8013 116.838 94.8509 116.948 94.866 117.065C94.8811 117.183 94.8612 117.302 94.8086 117.407C94.7561 117.513 94.6734 117.601 94.5709 117.66C94.4684 117.718 94.3509 117.745 94.2331 117.737C94.1153 117.729 94.0026 117.686 93.9093 117.614C93.816 117.541 93.7463 117.443 93.709 117.331C93.6717 117.219 93.6685 117.098 93.6998 116.984C93.7201 116.909 93.7551 116.838 93.8029 116.776C93.8506 116.714 93.91 116.662 93.9779 116.623C94.0457 116.584 94.1205 116.559 94.198 116.549C94.2755 116.54 94.3542 116.545 94.4296 116.566Z" fill="url(#paint23_radial_1_506)"/>
<path d="M94.4087 116.644C94.5306 116.688 94.6316 116.776 94.6916 116.89C94.7517 117.005 94.7664 117.138 94.7327 117.263C94.6991 117.388 94.6197 117.496 94.5102 117.566C94.4007 117.635 94.2692 117.66 94.1419 117.637C94.0718 117.624 94.0053 117.597 93.9463 117.557C93.8873 117.517 93.8373 117.465 93.7993 117.405C93.7613 117.345 93.7361 117.277 93.7255 117.207C93.7148 117.136 93.7189 117.065 93.7374 116.996C93.7559 116.927 93.7884 116.863 93.8329 116.807C93.8774 116.752 93.933 116.706 93.996 116.673C94.0591 116.64 94.1283 116.62 94.1993 116.615C94.2704 116.61 94.3416 116.62 94.4087 116.644Z" fill="url(#paint24_radial_1_506)"/>
<path d="M97.6571 111.834C97.5716 112.153 97.76 112.48 98.078 112.565C98.396 112.651 98.7231 112.462 98.8086 112.144C98.8941 111.826 98.7057 111.499 98.3877 111.413C98.0697 111.328 97.7426 111.516 97.6571 111.834Z" fill="url(#paint25_radial_1_506)"/>
<path d="M97.7385 111.856C97.665 112.13 97.8269 112.411 98.0999 112.484C98.373 112.557 98.6539 112.395 98.7273 112.122C98.8008 111.849 98.6389 111.568 98.3659 111.495C98.0928 111.421 97.8119 111.583 97.7385 111.856Z" fill="url(#paint26_radial_1_506)"/>
<path d="M104.093 110.993C104.007 111.311 104.196 111.639 104.514 111.724C104.832 111.809 105.159 111.621 105.244 111.303C105.33 110.984 105.142 110.657 104.824 110.572C104.506 110.486 104.178 110.675 104.093 110.993Z" fill="url(#paint27_radial_1_506)"/>
<path d="M104.174 111.015C104.101 111.288 104.263 111.569 104.536 111.643C104.809 111.716 105.09 111.554 105.163 111.281C105.237 111.008 105.075 110.727 104.802 110.653C104.529 110.58 104.248 110.742 104.174 111.015Z" fill="url(#paint28_radial_1_506)"/>
<path d="M110.11 115.618C110.007 115.677 109.89 115.704 109.772 115.696C109.655 115.689 109.542 115.646 109.448 115.574C109.355 115.503 109.284 115.405 109.247 115.293C109.209 115.181 109.205 115.061 109.236 114.947C109.266 114.833 109.33 114.73 109.419 114.652C109.508 114.575 109.617 114.525 109.734 114.51C109.851 114.495 109.97 114.514 110.076 114.567C110.182 114.619 110.269 114.702 110.328 114.804C110.407 114.941 110.428 115.103 110.387 115.256C110.346 115.409 110.246 115.539 110.11 115.618Z" fill="url(#paint29_radial_1_506)"/>
<path d="M110.069 115.547C109.981 115.598 109.881 115.621 109.78 115.615C109.679 115.608 109.582 115.571 109.502 115.51C109.421 115.448 109.361 115.364 109.329 115.268C109.296 115.172 109.293 115.068 109.319 114.971C109.346 114.873 109.4 114.785 109.476 114.718C109.553 114.651 109.647 114.609 109.747 114.596C109.848 114.582 109.95 114.599 110.041 114.644C110.131 114.689 110.207 114.76 110.257 114.848C110.291 114.906 110.313 114.97 110.321 115.037C110.33 115.104 110.326 115.171 110.308 115.236C110.291 115.301 110.261 115.362 110.22 115.416C110.179 115.469 110.127 115.514 110.069 115.547Z" fill="url(#paint30_radial_1_506)"/>
<path d="M110.5 122.117C110.386 122.087 110.283 122.024 110.205 121.935C110.127 121.847 110.076 121.737 110.061 121.62C110.045 121.503 110.064 121.384 110.116 121.278C110.168 121.172 110.25 121.084 110.352 121.024C110.454 120.965 110.572 120.937 110.69 120.945C110.808 120.952 110.92 120.995 111.014 121.067C111.108 121.139 111.178 121.237 111.216 121.348C111.254 121.46 111.258 121.581 111.227 121.695C111.186 121.847 111.087 121.977 110.951 122.056C110.814 122.135 110.652 122.157 110.5 122.117Z" fill="url(#paint31_radial_1_506)"/>
<path d="M110.16 121.408C110.087 121.681 110.249 121.962 110.522 122.036C110.795 122.109 111.076 121.947 111.149 121.674C111.223 121.401 111.061 121.12 110.788 121.046C110.515 120.973 110.234 121.135 110.16 121.408Z" fill="url(#paint32_radial_1_506)"/>
<path d="M106.182 126.988C106.122 126.886 106.095 126.769 106.103 126.651C106.111 126.533 106.153 126.42 106.225 126.327C106.297 126.233 106.395 126.163 106.506 126.125C106.618 126.087 106.739 126.083 106.853 126.114C106.967 126.144 107.069 126.208 107.146 126.297C107.224 126.386 107.274 126.495 107.289 126.613C107.304 126.73 107.284 126.849 107.232 126.954C107.18 127.06 107.097 127.148 106.995 127.207C106.858 127.285 106.695 127.307 106.543 127.266C106.39 127.225 106.261 127.125 106.182 126.988Z" fill="url(#paint33_radial_1_506)"/>
<path d="M106.251 126.951C106.2 126.863 106.176 126.761 106.183 126.659C106.189 126.558 106.226 126.46 106.288 126.379C106.35 126.298 106.435 126.237 106.532 126.205C106.628 126.172 106.732 126.168 106.831 126.195C106.929 126.221 107.018 126.276 107.085 126.353C107.152 126.43 107.195 126.525 107.208 126.626C107.221 126.727 107.204 126.83 107.159 126.922C107.113 127.013 107.042 127.089 106.953 127.14C106.835 127.207 106.695 127.225 106.563 127.189C106.432 127.154 106.32 127.069 106.251 126.951Z" fill="url(#paint34_radial_1_506)"/>
<path d="M101.252 121.421C100.868 120.749 100.691 119.978 100.744 119.205C100.797 118.432 101.078 117.692 101.55 117.079C102.023 116.465 102.667 116.005 103.4 115.757C104.134 115.509 104.924 115.484 105.672 115.685C106.42 115.886 107.091 116.304 107.602 116.887C108.112 117.469 108.438 118.189 108.54 118.957C108.641 119.725 108.513 120.506 108.172 121.201C107.83 121.897 107.291 122.475 106.621 122.864C105.717 123.384 104.644 123.525 103.638 123.254C102.631 122.984 101.773 122.324 101.252 121.421Z" fill="url(#paint35_radial_1_506)"/>
<path d="M96.7693 119.459C96.6397 119.232 96.5803 118.972 96.5984 118.711C96.6165 118.45 96.7114 118.201 96.871 117.994C97.0307 117.787 97.248 117.632 97.4956 117.548C97.7431 117.464 98.0099 117.456 98.2622 117.524C98.5145 117.592 98.7411 117.733 98.9134 117.929C99.0857 118.126 99.196 118.369 99.2304 118.628C99.2648 118.887 99.2217 119.15 99.1066 119.385C98.9916 119.62 98.8096 119.815 98.5838 119.947C98.4326 120.034 98.2658 120.091 98.0927 120.114C97.9197 120.137 97.7438 120.125 97.5752 120.08C97.4067 120.034 97.2487 119.956 97.1104 119.85C96.9721 119.743 96.8562 119.61 96.7693 119.459Z" fill="url(#paint36_radial_1_506)"/>
<path d="M93.8885 128.945C93.6342 128.503 98.8748 125 105.592 121.126C112.31 117.252 117.963 114.47 118.22 114.916C118.477 115.361 113.237 118.862 106.516 122.735C99.7955 126.608 94.1453 129.391 93.8885 128.945Z" fill="url(#paint37_radial_1_506)"/>
<path d="M99.0444 109.762C99.4901 109.505 102.987 114.746 106.857 121.466C110.727 128.185 113.506 133.844 113.064 134.099C112.623 134.353 109.121 129.117 105.251 122.394C101.382 115.672 98.6029 110.016 99.0444 109.762Z" fill="url(#paint38_radial_1_506)"/>
<path d="M105.853 122.541C110.94 124.227 115.154 125.321 115.265 124.986C115.377 124.65 111.343 123.011 106.255 121.325C101.168 119.639 96.9536 118.545 96.8424 118.88C96.7312 119.216 100.765 120.855 105.853 122.541Z" fill="url(#paint39_radial_1_506)"/>
<path d="M109.107 112.718C109.444 112.829 108.348 117.049 106.663 122.136C104.979 127.223 103.336 131.261 102.999 131.149C102.663 131.038 103.759 126.818 105.447 121.732C107.135 116.646 108.772 112.603 109.107 112.718Z" fill="url(#paint40_radial_1_506)"/>
<path d="M94.6488 118.865C92.9545 125.168 96.6883 131.651 102.988 133.344C109.288 135.037 115.769 131.3 117.463 124.997C119.157 118.693 115.424 112.21 109.124 110.517C102.824 108.824 96.343 112.561 94.6488 118.865Z" fill="url(#paint41_radial_1_506)"/>
<path d="M86.6994 98.043C85.918 100.95 87.6401 103.94 90.5458 104.721C93.4516 105.502 96.4406 103.779 97.2221 100.871C98.0035 97.9638 96.2814 94.9738 93.3756 94.1928C90.4699 93.4118 87.4808 95.1356 86.6994 98.043Z" fill="url(#paint42_linear_1_506)"/>
<path d="M86.8848 98.0929C86.1309 100.898 87.7923 103.783 90.5957 104.536C93.3991 105.29 96.2828 103.626 97.0367 100.822C97.7906 98.0165 96.1292 95.1319 93.3258 94.3784C90.5224 93.6249 87.6387 95.288 86.8848 98.0929Z" fill="url(#paint43_linear_1_506)"/>
<path d="M88.0163 98.3971C87.4305 100.577 88.7216 102.818 90.9 103.404C93.0784 103.989 95.3193 102.697 95.9051 100.517C96.4909 98.3377 95.1999 96.0962 93.0214 95.5107C90.843 94.9252 88.6022 96.2175 88.0163 98.3971Z" fill="url(#paint44_linear_1_506)"/>
<path d="M88.2895 98.4703C87.7443 100.499 88.9459 102.585 90.9735 103.13C93.001 103.675 95.0867 102.472 95.632 100.444C96.1772 98.4151 94.9756 96.3287 92.948 95.7838C90.9205 95.2388 88.8348 96.4416 88.2895 98.4703Z" fill="url(#paint45_radial_1_506)"/>
<path d="M90.4351 103.861C90.4716 103.796 90.529 103.744 90.5982 103.715C90.6673 103.686 90.7443 103.68 90.8168 103.7C90.8893 103.719 90.9532 103.763 90.9984 103.823C91.0436 103.883 91.0674 103.956 91.0661 104.031C91.0296 104.097 90.9722 104.148 90.903 104.177C90.8338 104.207 90.7569 104.212 90.6844 104.193C90.6119 104.173 90.5479 104.13 90.5028 104.07C90.4576 104.01 90.4338 103.937 90.4351 103.861Z" fill="url(#paint46_radial_1_506)"/>
<path d="M90.4806 103.874C90.4999 103.802 90.5468 103.741 90.611 103.704C90.6753 103.667 90.7516 103.657 90.8232 103.676C90.8951 103.695 90.9565 103.742 90.9941 103.807C91.0316 103.871 91.0423 103.947 91.0238 104.02C91.0036 104.092 90.956 104.153 90.8912 104.19C90.8264 104.228 90.7495 104.238 90.6771 104.22C90.6054 104.199 90.5446 104.152 90.5078 104.087C90.471 104.022 90.4613 103.946 90.4806 103.874Z" fill="url(#paint47_radial_1_506)"/>
<path d="M87.6137 101.697C87.5669 101.872 87.6702 102.051 87.8444 102.098C88.0187 102.145 88.1979 102.041 88.2448 101.867C88.2917 101.693 88.1884 101.513 88.0141 101.466C87.8399 101.42 87.6606 101.523 87.6137 101.697Z" fill="url(#paint48_radial_1_506)"/>
<path d="M87.656 101.709C87.6155 101.86 87.7049 102.015 87.8558 102.055C88.0067 102.096 88.1619 102.006 88.2025 101.855C88.2431 101.704 88.1537 101.549 88.0028 101.509C87.8519 101.468 87.6966 101.558 87.656 101.709Z" fill="url(#paint49_radial_1_506)"/>
<path d="M87.5482 97.9328C87.6126 97.9501 87.6703 97.9861 87.7142 98.0363C87.7581 98.0864 87.7861 98.1484 87.7948 98.2145C87.8034 98.2806 87.7923 98.3478 87.7627 98.4075C87.7332 98.4673 87.6867 98.517 87.6289 98.5503C87.5712 98.5835 87.5049 98.599 87.4384 98.5946C87.372 98.5902 87.3083 98.5661 87.2555 98.5255C87.2027 98.4849 87.1631 98.4296 87.1417 98.3664C87.1204 98.3033 87.1182 98.2352 87.1355 98.1709C87.1587 98.0846 87.2152 98.011 87.2926 97.9663C87.37 97.9217 87.462 97.9096 87.5482 97.9328Z" fill="url(#paint50_radial_1_506)"/>
<path d="M87.5369 97.975C87.5914 97.989 87.6405 98.0189 87.6779 98.0609C87.7154 98.1029 87.7394 98.1551 87.747 98.2108C87.7547 98.2666 87.7455 98.3234 87.7207 98.3739C87.6959 98.4244 87.6567 98.4664 87.6079 98.4945C87.5592 98.5226 87.5032 98.5356 87.4471 98.5317C87.391 98.5278 87.3373 98.5073 87.2929 98.4727C87.2485 98.4382 87.2154 98.3912 87.1979 98.3377C87.1803 98.2843 87.1791 98.2268 87.1943 98.1726C87.2136 98.101 87.2605 98.0399 87.3248 98.0028C87.389 97.9658 87.4653 97.9558 87.5369 97.975Z" fill="url(#paint51_radial_1_506)"/>
<path d="M89.3233 95.3365C89.2765 95.5109 89.3798 95.6902 89.554 95.737C89.7283 95.7839 89.9075 95.6805 89.9544 95.5061C90.0013 95.3318 89.898 95.1525 89.7237 95.1056C89.5495 95.0588 89.3702 95.1622 89.3233 95.3365Z" fill="url(#paint52_radial_1_506)"/>
<path d="M89.3656 95.3479C89.3251 95.4989 89.4145 95.6542 89.5654 95.6948C89.7163 95.7353 89.8715 95.6458 89.9121 95.4948C89.9527 95.3438 89.8633 95.1886 89.7124 95.148C89.5615 95.1074 89.4062 95.197 89.3656 95.3479Z" fill="url(#paint53_radial_1_506)"/>
<path d="M93.4814 95.0447C93.4641 95.1091 93.4281 95.1669 93.3779 95.2108C93.3278 95.2547 93.2658 95.2828 93.1997 95.2914C93.1337 95.3001 93.0666 95.2889 93.0068 95.2594C92.9471 95.2299 92.8975 95.1833 92.8642 95.1256C92.831 95.0678 92.8156 95.0015 92.82 94.935C92.8244 94.8685 92.8484 94.8048 92.889 94.752C92.9296 94.6991 92.985 94.6595 93.0481 94.6381C93.1112 94.6167 93.1792 94.6145 93.2436 94.6318C93.3298 94.655 93.4034 94.7115 93.448 94.789C93.4926 94.8664 93.5046 94.9584 93.4814 95.0447Z" fill="url(#paint54_radial_1_506)"/>
<path d="M93.4392 95.0334C93.419 95.1051 93.3713 95.166 93.3066 95.2028C93.2418 95.2396 93.1652 95.2494 93.0933 95.2301C93.0284 95.2048 92.9751 95.1564 92.9436 95.0941C92.9122 95.0319 92.9048 94.9602 92.9229 94.8929C92.941 94.8255 92.9833 94.7672 93.0417 94.7292C93.1001 94.6911 93.1705 94.6759 93.2394 94.6866C93.3119 94.706 93.3736 94.7535 93.4111 94.8186C93.4485 94.8836 93.4586 94.9609 93.4392 95.0334Z" fill="url(#paint55_radial_1_506)"/>
<path d="M96.1536 97.4131C96.0962 97.4486 96.0295 97.4661 95.962 97.4632C95.8946 97.4603 95.8296 97.4372 95.7754 97.3968C95.7213 97.3565 95.6805 97.3009 95.6584 97.2371C95.6362 97.1733 95.6338 97.1043 95.6513 97.039C95.6688 96.9738 95.7055 96.9154 95.7567 96.8713C95.8078 96.8271 95.871 96.7994 95.9381 96.7917C96.0051 96.7839 96.073 96.7965 96.1328 96.8278C96.1926 96.8591 96.2416 96.9077 96.2735 96.9672C96.314 97.0428 96.3241 97.131 96.3019 97.2139C96.2796 97.2967 96.2266 97.368 96.1536 97.4131Z" fill="url(#paint56_radial_1_506)"/>
<path d="M96.1308 97.3685C96.0662 97.4057 95.9894 97.4158 95.9175 97.3964C95.8455 97.3771 95.7841 97.3299 95.7469 97.2653C95.7097 97.2007 95.6997 97.124 95.719 97.0519C95.7384 96.9799 95.7856 96.9185 95.8501 96.8813C95.915 96.8454 95.9913 96.8361 96.0629 96.8554C96.1345 96.8746 96.1958 96.9209 96.234 96.9844C96.2526 97.0164 96.2647 97.0517 96.2696 97.0884C96.2745 97.125 96.2721 97.1623 96.2625 97.198C96.2529 97.2337 96.2363 97.2672 96.2137 97.2964C96.1911 97.3257 96.1629 97.3502 96.1308 97.3685Z" fill="url(#paint57_radial_1_506)"/>
<path d="M96.1357 100.579C96.0889 100.754 96.1921 100.933 96.3664 100.98C96.5407 101.027 96.7199 100.923 96.7668 100.749C96.8136 100.575 96.7104 100.395 96.5361 100.349C96.3618 100.302 96.1826 100.405 96.1357 100.579Z" fill="url(#paint58_radial_1_506)"/>
<path d="M96.1781 100.591C96.1375 100.742 96.2269 100.897 96.3778 100.938C96.5287 100.978 96.684 100.889 96.7246 100.738C96.7651 100.587 96.6757 100.431 96.5248 100.391C96.3739 100.35 96.2187 100.44 96.1781 100.591Z" fill="url(#paint59_radial_1_506)"/>
<path d="M93.9992 103.651C93.9638 103.593 93.9463 103.527 93.9493 103.459C93.9522 103.392 93.9753 103.327 94.0156 103.272C94.0559 103.218 94.1116 103.177 94.1753 103.155C94.2391 103.133 94.3081 103.131 94.3733 103.148C94.4385 103.166 94.4969 103.202 94.5409 103.254C94.585 103.305 94.6127 103.368 94.6204 103.435C94.6281 103.502 94.6155 103.57 94.5842 103.63C94.5529 103.69 94.5044 103.739 94.4449 103.771C94.3693 103.811 94.2811 103.821 94.1983 103.799C94.1155 103.777 94.0443 103.724 93.9992 103.651Z" fill="url(#paint60_radial_1_506)"/>
<path d="M94.0364 103.629C94.0081 103.581 93.9948 103.525 93.9982 103.469C94.0017 103.413 94.0217 103.359 94.0558 103.315C94.0898 103.27 94.1364 103.236 94.1895 103.218C94.2426 103.2 94.2999 103.198 94.3541 103.213C94.4083 103.228 94.457 103.258 94.4939 103.3C94.5308 103.342 94.5543 103.395 94.5613 103.45C94.5684 103.506 94.5588 103.563 94.5337 103.613C94.5086 103.663 94.4691 103.705 94.4203 103.733C94.3556 103.769 94.279 103.779 94.2072 103.76C94.1353 103.74 94.074 103.694 94.0364 103.629Z" fill="url(#paint61_radial_1_506)"/>
<path d="M91.287 100.602C91.0727 100.233 90.9727 99.8089 90.9996 99.3833C91.0266 98.9576 91.1794 98.5495 91.4385 98.2107C91.6976 97.872 92.0515 97.6179 92.4552 97.4806C92.8588 97.3434 93.2941 97.3292 93.7058 97.4398C94.1175 97.5505 94.487 97.781 94.7675 98.1021C95.048 98.4233 95.2267 98.8205 95.2811 99.2435C95.3355 99.6666 95.2631 100.096 95.073 100.478C94.883 100.86 94.5838 101.177 94.2136 101.388C93.7204 101.669 93.1365 101.744 92.5886 101.597C92.0407 101.449 91.573 101.092 91.287 100.602Z" fill="url(#paint62_radial_1_506)"/>
<path d="M88.8331 99.5204C88.7616 99.3957 88.7286 99.2525 88.7383 99.1089C88.748 98.9654 88.8 98.828 88.8878 98.714C88.9755 98.6 89.095 98.5145 89.2313 98.4684C89.3675 98.4223 89.5143 98.4176 89.6532 98.455C89.792 98.4923 89.9167 98.5699 90.0115 98.6781C90.1062 98.7863 90.1668 98.9201 90.1856 99.0628C90.2043 99.2054 90.1804 99.3504 90.1169 99.4795C90.0533 99.6085 89.953 99.7159 89.8285 99.788C89.7456 99.836 89.6541 99.8671 89.5591 99.8796C89.4642 99.8922 89.3677 99.8858 89.2753 99.861C89.1828 99.8361 89.0961 99.7932 89.0203 99.7348C88.9444 99.6764 88.8808 99.6035 88.8331 99.5204Z" fill="url(#paint63_radial_1_506)"/>
<path d="M87.2597 104.728C87.1194 104.484 89.9936 102.56 93.6815 100.436C97.3695 98.3118 100.468 96.7862 100.608 97.0298C100.748 97.2733 97.875 99.1943 94.1903 101.319C90.5055 103.444 87.3934 104.97 87.2597 104.728Z" fill="url(#paint64_radial_1_506)"/>
<path d="M90.0886 94.2024C90.3321 94.062 92.2513 96.9362 94.3774 100.623C96.5036 104.31 98.0226 107.415 97.7791 107.555C97.5357 107.695 95.6173 104.818 93.4944 101.132C91.3715 97.4463 89.8387 94.3411 90.0886 94.2024Z" fill="url(#paint65_radial_1_506)"/>
<path d="M88.8745 99.1997C88.9243 99.0142 91.2481 99.6179 94.0399 100.543C96.8317 101.467 99.0416 102.365 98.9767 102.567C98.9119 102.77 96.6031 102.149 93.8146 101.225C91.026 100.301 88.814 99.3858 88.8745 99.1997Z" fill="url(#paint66_radial_1_506)"/>
<path d="M95.5994 95.8302C95.788 95.8809 95.1849 98.2027 94.2597 100.996C93.3346 103.789 92.4361 106.004 92.251 105.94C92.0659 105.877 92.6655 103.568 93.5906 100.774C94.5157 97.981 95.4201 95.7576 95.5994 95.8302Z" fill="url(#paint67_radial_1_506)"/>
<path d="M87.6731 99.1944C86.7438 102.652 88.7916 106.207 92.2469 107.136C95.7022 108.065 99.2566 106.015 100.186 102.557C101.115 99.1003 99.0672 95.5448 95.6119 94.6161C92.1566 93.6874 88.6023 95.7372 87.6731 99.1944Z" fill="url(#paint68_radial_1_506)"/>
<path opacity="0.23" d="M111.647 120.029L115.803 117.629C112.044 108.264 106.093 96.9761 96.8374 83.8168L91.7117 86.7755C91.7117 86.7755 102.616 99.6662 111.647 120.029Z" fill="white"/>
<path opacity="0.23" d="M117.149 126.97L118.799 126.018C118.529 125.143 118.231 124.24 117.921 123.319L116.038 124.408C116.344 125.288 116.715 126.145 117.149 126.97Z" fill="white"/>
<path opacity="0.23" d="M116.375 127.425C115.939 126.6 115.565 125.744 115.257 124.864L113.994 125.592C114.337 126.455 114.678 127.328 115.009 128.213L116.375 127.425Z" fill="white"/>
<path opacity="0.23" d="M114.932 123.995C114.61 123.082 114.283 122.171 113.881 121.292C113.426 121.543 112.976 121.791 112.518 122.031C112.897 122.921 113.271 123.824 113.641 124.74L114.932 123.995Z" fill="white"/>
<path opacity="0.23" d="M115.717 123.54L117.614 122.449C117.299 121.558 116.972 120.65 116.606 119.715C115.955 120.096 115.305 120.472 114.657 120.844C115.072 121.724 115.396 122.634 115.717 123.54Z" fill="white"/>
<path style="mix-blend-mode:screen" opacity="0.23" d="M115.434 129.395C118.07 136.544 120.098 143.903 121.497 151.394C121.497 151.394 123.845 143.23 119.16 127.246L115.434 129.395Z" fill="url(#paint69_linear_1_506)"/>
<path d="M74.9355 53.8587L58.9587 63.0725L57.6887 59.56L72.5349 50.9983L74.9355 53.8587Z" fill="url(#paint70_radial_1_506)"/>
<path d="M67.1964 58.3217L65.3607 55.1345L64.8618 55.4223L66.6974 58.6094L67.1964 58.3217Z" fill="#5E5E5E"/>
<path d="M62.5297 56.7654L61.9809 57.0818L63.3985 60.5119L63.9473 60.1954L62.5297 56.7654Z" fill="#5E5E5E"/>
<path d="M60.936 61.9292L59.5208 58.5033L58.972 58.8198L60.3905 62.2466L60.936 61.9292Z" fill="#5E5E5E"/>
<path d="M70.4956 56.419L68.2404 53.472L67.6916 53.7885L69.9468 56.7355L70.4956 56.419Z" fill="#5E5E5E"/>
<path d="M73.5037 54.6844L71.2484 51.7374L70.7029 52.0547L72.9557 54.9976L73.5037 54.6844Z" fill="#5E5E5E"/>
</g>
<defs>
<linearGradient id="paint0_linear_1_506" x1="28.1195" y1="21.5551" x2="54.9068" y2="68.0045" gradientUnits="userSpaceOnUse">
<stop stop-color="white"/>
<stop offset="0.07" stop-color="#FFFCF2"/>
<stop offset="0.21" stop-color="#FFF4D1"/>
<stop offset="0.4" stop-color="#FEE89B"/>
<stop offset="0.62" stop-color="#FED751"/>
<stop offset="0.81" stop-color="#FDC70C"/>
<stop offset="0.92" stop-color="#ED683C"/>
<stop offset="1" stop-color="#E93E3A"/>
</linearGradient>
<radialGradient id="paint1_radial_1_506" cx="0" cy="0" r="1" gradientUnits="userSpaceOnUse" gradientTransform="translate(43.2862 47.7794) rotate(-119.94) scale(30.0996 9.89574)">
<stop stop-color="#E93E3A"/>
<stop offset="0.11" stop-color="#ED683C"/>
<stop offset="0.36" stop-color="#FDC70C"/>
<stop offset="0.51" stop-color="#FED751"/>
<stop offset="0.69" stop-color="#FEE89B"/>
<stop offset="0.83" stop-color="#FFF4D1"/>
<stop offset="0.94" stop-color="#FFFCF2"/>
<stop offset="1" stop-color="white"/>
</radialGradient>
<linearGradient id="paint2_linear_1_506" x1="54.4107" y1="6.39304" x2="81.198" y2="52.8425" gradientUnits="userSpaceOnUse">
<stop stop-color="white"/>
<stop offset="0.07" stop-color="#FFFCF2"/>
<stop offset="0.21" stop-color="#FFF4D1"/>
<stop offset="0.4" stop-color="#FEE89B"/>
<stop offset="0.62" stop-color="#FED751"/>
<stop offset="0.81" stop-color="#FDC70C"/>
<stop offset="0.92" stop-color="#ED683C"/>
<stop offset="1" stop-color="#E93E3A"/>
</linearGradient>
<radialGradient id="paint3_radial_1_506" cx="0" cy="0" r="1" gradientUnits="userSpaceOnUse" gradientTransform="translate(69.585 32.6325) rotate(-119.94) scale(30.0996 9.89574)">
<stop stop-color="#E93E3A"/>
<stop offset="0.11" stop-color="#ED683C"/>
<stop offset="0.36" stop-color="#FDC70C"/>
<stop offset="0.51" stop-color="#FED751"/>
<stop offset="0.69" stop-color="#FEE89B"/>
<stop offset="0.83" stop-color="#FFF4D1"/>
<stop offset="0.94" stop-color="#FFFCF2"/>
<stop offset="1" stop-color="white"/>
</radialGradient>
<linearGradient id="paint4_linear_1_506" x1="37.492" y1="7.46017" x2="67.0574" y2="58.7268" gradientUnits="userSpaceOnUse">
<stop stop-color="white"/>
<stop offset="0.07" stop-color="#FFFCF2"/>
<stop offset="0.21" stop-color="#FFF4D1"/>
<stop offset="0.4" stop-color="#FEE89B"/>
<stop offset="0.62" stop-color="#FED751"/>
<stop offset="0.81" stop-color="#FDC70C"/>
<stop offset="0.92" stop-color="#ED683C"/>
<stop offset="1" stop-color="#E93E3A"/>
</linearGradient>
<radialGradient id="paint5_radial_1_506" cx="0" cy="0" r="1" gradientUnits="userSpaceOnUse" gradientTransform="translate(54.3865 36.3304) rotate(-119.94) scale(33.2221 9.55705)">
<stop stop-color="#E93E3A"/>
<stop offset="0.11" stop-color="#ED683C"/>
<stop offset="0.36" stop-color="#FDC70C"/>
<stop offset="0.51" stop-color="#FED751"/>
<stop offset="0.69" stop-color="#FEE89B"/>
<stop offset="0.83" stop-color="#FFF4D1"/>
<stop offset="0.94" stop-color="#FFFCF2"/>
<stop offset="1" stop-color="white"/>
</radialGradient>
<radialGradient id="paint6_radial_1_506" cx="0" cy="0" r="1" gradientUnits="userSpaceOnUse" gradientTransform="translate(54.4598 65.8867) rotate(150.028) scale(11.6098 12.3508)">
<stop stop-color="#D4D4D4"/>
<stop offset="0.14" stop-color="#CFCFCF"/>
<stop offset="0.29" stop-color="#C2C2C2"/>
<stop offset="0.45" stop-color="#ABABAB"/>
<stop offset="0.62" stop-color="#8C8C8C"/>
<stop offset="0.79" stop-color="#646464"/>
<stop offset="0.83" stop-color="#595959"/>
<stop offset="0.9" stop-color="#5B5B5B"/>
<stop offset="0.94" stop-color="#636363"/>
<stop offset="0.97" stop-color="#717171"/>
<stop offset="0.99" stop-color="#848484"/>
<stop offset="1" stop-color="#8C8C8C"/>
</radialGradient>
<radialGradient id="paint7_radial_1_506" cx="0" cy="0" r="1" gradientUnits="userSpaceOnUse" gradientTransform="translate(82.5086 49.711) rotate(150.028) scale(11.6098 12.3508)">
<stop stop-color="#D4D4D4"/>
<stop offset="0.14" stop-color="#CFCFCF"/>
<stop offset="0.29" stop-color="#C2C2C2"/>
<stop offset="0.45" stop-color="#ABABAB"/>
<stop offset="0.62" stop-color="#8C8C8C"/>
<stop offset="0.79" stop-color="#646464"/>
<stop offset="0.83" stop-color="#595959"/>
<stop offset="0.9" stop-color="#5B5B5B"/>
<stop offset="0.94" stop-color="#636363"/>
<stop offset="0.97" stop-color="#717171"/>
<stop offset="0.99" stop-color="#848484"/>
<stop offset="1" stop-color="#8C8C8C"/>
</radialGradient>
<radialGradient id="paint8_radial_1_506" cx="0" cy="0" r="1" gradientUnits="userSpaceOnUse" gradientTransform="translate(105.694 100.896) rotate(-120.747) scale(73.752 30.6452)">
<stop stop-color="#F2F2F2"/>
<stop offset="0.13" stop-color="#EDEDED"/>
<stop offset="0.22" stop-color="#E7E7E7"/>
<stop offset="0.33" stop-color="#D6D6D6"/>
<stop offset="0.46" stop-color="#BABABA"/>
<stop offset="0.6" stop-color="#939393"/>
<stop offset="0.75" stop-color="#626262"/>
<stop offset="0.77" stop-color="#595959"/>
<stop offset="0.83" stop-color="#5B5B5B"/>
<stop offset="0.86" stop-color="#636363"/>
<stop offset="0.88" stop-color="#717171"/>
<stop offset="0.9" stop-color="#848484"/>
<stop offset="0.92" stop-color="#9D9D9D"/>
<stop offset="0.93" stop-color="#BBBBBB"/>
<stop offset="0.95" stop-color="#E5E5E5"/>
<stop offset="0.96" stop-color="#DBDBDB"/>
<stop offset="0.97" stop-color="#BFBFBF"/>
<stop offset="0.99" stop-color="#939393"/>
<stop offset="1" stop-color="#7F7F7F"/>
</radialGradient>
<radialGradient id="paint9_radial_1_506" cx="0" cy="0" r="1" gradientUnits="userSpaceOnUse" gradientTransform="translate(117.124 138.768) rotate(-132.206) scale(32.0997 15.3388)">
<stop stop-color="#D1000E"/>
<stop offset="0.14" stop-color="#CC000E"/>
<stop offset="0.29" stop-color="#BF010E"/>
<stop offset="0.46" stop-color="#A8020D"/>
<stop offset="0.63" stop-color="#89040C"/>
<stop offset="0.8" stop-color="#61060B"/>
<stop offset="0.83" stop-color="#59060B"/>
<stop offset="0.9" stop-color="#5B060B"/>
<stop offset="0.94" stop-color="#63050B"/>
<stop offset="0.97" stop-color="#71050B"/>
<stop offset="0.99" stop-color="#84030C"/>
<stop offset="1" stop-color="#8C030C"/>
</radialGradient>
<radialGradient id="paint10_radial_1_506" cx="0" cy="0" r="1" gradientUnits="userSpaceOnUse" gradientTransform="translate(66.9232 95.6605) rotate(-119.94) scale(32.9737 14.8382)">
<stop stop-color="#D1000E"/>
<stop offset="0.14" stop-color="#CC000E"/>
<stop offset="0.29" stop-color="#BF010E"/>
<stop offset="0.46" stop-color="#A8020D"/>
<stop offset="0.63" stop-color="#89040C"/>
<stop offset="0.8" stop-color="#61060B"/>
<stop offset="0.83" stop-color="#59060B"/>
<stop offset="0.9" stop-color="#5B060B"/>
<stop offset="0.94" stop-color="#63050B"/>
<stop offset="0.97" stop-color="#71050B"/>
<stop offset="0.99" stop-color="#84030C"/>
<stop offset="1" stop-color="#8C030C"/>
</radialGradient>
<radialGradient id="paint11_radial_1_506" cx="0" cy="0" r="1" gradientUnits="userSpaceOnUse" gradientTransform="translate(94.9769 77.3316) rotate(-139.794) scale(11.1195 8.00889)">
<stop stop-color="#231F20"/>
<stop offset="1" stop-color="white" stop-opacity="0"/>
</radialGradient>
<radialGradient id="paint12_radial_1_506" cx="0" cy="0" r="1" gradientUnits="userSpaceOnUse" gradientTransform="translate(74.2956 85.0364) rotate(-155.721) scale(16.081 8.77609)">
<stop stop-color="#231F20"/>
<stop offset="1" stop-color="white" stop-opacity="0"/>
</radialGradient>
<radialGradient id="paint13_radial_1_506" cx="0" cy="0" r="1" gradientUnits="userSpaceOnUse" gradientTransform="translate(97.5692 77.9102) rotate(-119.94) scale(33.2836 15.3104)">
<stop stop-color="#D1000E"/>
<stop offset="0.14" stop-color="#CC000E"/>
<stop offset="0.29" stop-color="#BF010E"/>
<stop offset="0.46" stop-color="#A8020D"/>
<stop offset="0.63" stop-color="#89040C"/>
<stop offset="0.8" stop-color="#61060B"/>
<stop offset="0.83" stop-color="#59060B"/>
<stop offset="0.9" stop-color="#5B060B"/>
<stop offset="0.94" stop-color="#63050B"/>
<stop offset="0.97" stop-color="#71050B"/>
<stop offset="0.99" stop-color="#84030C"/>
<stop offset="1" stop-color="#8C030C"/>
</radialGradient>
<radialGradient id="paint14_radial_1_506" cx="0" cy="0" r="1" gradientUnits="userSpaceOnUse" gradientTransform="translate(82.8818 86.9185) rotate(-119.94) scale(37.231 16.3816)">
<stop stop-color="#D1000E"/>
<stop offset="0.14" stop-color="#CC000E"/>
<stop offset="0.29" stop-color="#BF010E"/>
<stop offset="0.46" stop-color="#A8020D"/>
<stop offset="0.63" stop-color="#89040C"/>
<stop offset="0.8" stop-color="#61060B"/>
<stop offset="0.83" stop-color="#59060B"/>
<stop offset="0.9" stop-color="#5B060B"/>
<stop offset="0.94" stop-color="#63050B"/>
<stop offset="0.97" stop-color="#71050B"/>
<stop offset="0.99" stop-color="#84030C"/>
<stop offset="1" stop-color="#8C030C"/>
</radialGradient>
<linearGradient id="paint15_linear_1_506" x1="106.246" y1="129.732" x2="98.8007" y2="109.437" gradientUnits="userSpaceOnUse">
<stop stop-color="white"/>
<stop offset="1" stop-color="#4D4B4B"/>
</linearGradient>
<linearGradient id="paint16_linear_1_506" x1="111.718" y1="121.827" x2="93.2125" y2="116.853" gradientUnits="userSpaceOnUse">
<stop stop-color="white"/>
<stop offset="1" stop-color="#4D4B4B"/>
</linearGradient>
<linearGradient id="paint17_linear_1_506" x1="100.128" y1="112.202" x2="104.791" y2="126.414" gradientUnits="userSpaceOnUse">
<stop stop-color="white"/>
<stop offset="1" stop-color="#4D4B4B"/>
</linearGradient>
<radialGradient id="paint18_radial_1_506" cx="0" cy="0" r="1" gradientUnits="userSpaceOnUse" gradientTransform="translate(102.468 119.341) rotate(-164.956) scale(6.92961 6.93349)">
<stop stop-color="#42A7FF"/>
<stop offset="0.16" stop-color="#41A3FA"/>
<stop offset="0.35" stop-color="#3D96ED"/>
<stop offset="0.54" stop-color="#3880D6"/>
<stop offset="0.74" stop-color="#2F62B7"/>
<stop offset="0.94" stop-color="#253C8F"/>
<stop offset="1" stop-color="#223082"/>
</radialGradient>
<radialGradient id="paint19_radial_1_506" cx="0" cy="0" r="1" gradientUnits="userSpaceOnUse" gradientTransform="translate(99.996 127.028) rotate(-164.956) scale(1.22269 1.22338)">
<stop stop-color="white"/>
<stop offset="1" stop-color="#6C6A6A"/>
</radialGradient>
<radialGradient id="paint20_radial_1_506" cx="0" cy="0" r="1" gradientUnits="userSpaceOnUse" gradientTransform="translate(100.264 127.536) rotate(-164.956) scale(0.51198 0.512269)">
<stop stop-color="white"/>
<stop offset="1" stop-color="#6C6A6A"/>
</radialGradient>
<radialGradient id="paint21_radial_1_506" cx="0" cy="0" r="1" gradientUnits="userSpaceOnUse" gradientTransform="translate(95.2776 123.025) rotate(-119.94) scale(1.22303)">
<stop stop-color="white"/>
<stop offset="1" stop-color="#6C6A6A"/>
</radialGradient>
<radialGradient id="paint22_radial_1_506" cx="0" cy="0" r="1" gradientUnits="userSpaceOnUse" gradientTransform="translate(95.1079 123.574) rotate(-119.94) scale(0.512124)">
<stop stop-color="white"/>
<stop offset="1" stop-color="#6C6A6A"/>
</radialGradient>
<radialGradient id="paint23_radial_1_506" cx="0" cy="0" r="1" gradientUnits="userSpaceOnUse" gradientTransform="translate(94.7796 116.873) rotate(-74.956) scale(1.22337 1.22269)">
<stop stop-color="white"/>
<stop offset="1" stop-color="#6C6A6A"/>
</radialGradient>
<radialGradient id="paint24_radial_1_506" cx="0" cy="0" r="1" gradientUnits="userSpaceOnUse" gradientTransform="translate(94.2757 117.139) rotate(-74.956) scale(0.51227 0.51198)">
<stop stop-color="white"/>
<stop offset="1" stop-color="#6C6A6A"/>
</radialGradient>
<radialGradient id="paint25_radial_1_506" cx="0" cy="0" r="1" gradientUnits="userSpaceOnUse" gradientTransform="translate(98.7734 112.151) rotate(-29.9721) scale(1.22303)">
<stop stop-color="white"/>
<stop offset="1" stop-color="#6C6A6A"/>
</radialGradient>
<radialGradient id="paint26_radial_1_506" cx="0" cy="0" r="1" gradientUnits="userSpaceOnUse" gradientTransform="translate(98.2263 111.984) rotate(-29.9721) scale(0.512124)">
<stop stop-color="white"/>
<stop offset="1" stop-color="#6C6A6A"/>
</radialGradient>
<radialGradient id="paint27_radial_1_506" cx="0" cy="0" r="1" gradientUnits="userSpaceOnUse" gradientTransform="translate(104.934 111.652) rotate(15.044) scale(1.22269 1.22338)">
<stop stop-color="white"/>
<stop offset="1" stop-color="#6C6A6A"/>
</radialGradient>
<radialGradient id="paint28_radial_1_506" cx="0" cy="0" r="1" gradientUnits="userSpaceOnUse" gradientTransform="translate(104.669 111.148) rotate(15.044) scale(0.51198 0.512269)">
<stop stop-color="white"/>
<stop offset="1" stop-color="#6C6A6A"/>
</radialGradient>
<radialGradient id="paint29_radial_1_506" cx="0" cy="0" r="1" gradientUnits="userSpaceOnUse" gradientTransform="translate(109.644 115.645) rotate(60.06) scale(1.22303)">
<stop stop-color="white"/>
<stop offset="1" stop-color="#6C6A6A"/>
</radialGradient>
<radialGradient id="paint30_radial_1_506" cx="0" cy="0" r="1" gradientUnits="userSpaceOnUse" gradientTransform="translate(109.814 115.096) rotate(60.06) scale(0.512124)">
<stop stop-color="white"/>
<stop offset="1" stop-color="#6C6A6A"/>
</radialGradient>
<radialGradient id="paint31_radial_1_506" cx="0" cy="0" r="1" gradientUnits="userSpaceOnUse" gradientTransform="translate(110.15 121.81) rotate(105.044) scale(1.22337 1.22269)">
<stop stop-color="white"/>
<stop offset="1" stop-color="#6C6A6A"/>
</radialGradient>
<radialGradient id="paint32_radial_1_506" cx="0" cy="0" r="1" gradientUnits="userSpaceOnUse" gradientTransform="translate(110.655 121.541) rotate(105.044) scale(0.512269 0.51198)">
<stop stop-color="white"/>
<stop offset="1" stop-color="#6C6A6A"/>
</radialGradient>
<radialGradient id="paint33_radial_1_506" cx="0" cy="0" r="1" gradientUnits="userSpaceOnUse" gradientTransform="translate(106.151 126.52) rotate(150.028) scale(1.22303)">
<stop stop-color="white"/>
<stop offset="1" stop-color="#6C6A6A"/>
</radialGradient>
<radialGradient id="paint34_radial_1_506" cx="0" cy="0" r="1" gradientUnits="userSpaceOnUse" gradientTransform="translate(106.699 126.687) rotate(150.028) scale(0.512122)">
<stop stop-color="white"/>
<stop offset="1" stop-color="#6C6A6A"/>
</radialGradient>
<radialGradient id="paint35_radial_1_506" cx="0" cy="0" r="1" gradientUnits="userSpaceOnUse" gradientTransform="translate(109.606 118.875) rotate(150.028) scale(12.0207 12.0207)">
<stop stop-color="white" stop-opacity="0.53"/>
<stop offset="0.22" stop-color="white" stop-opacity="0.39"/>
<stop offset="0.58" stop-color="white" stop-opacity="0.18"/>
<stop offset="0.85" stop-color="white" stop-opacity="0.05"/>
<stop offset="1" stop-color="white" stop-opacity="0"/>
</radialGradient>
<radialGradient id="paint36_radial_1_506" cx="0" cy="0" r="1" gradientUnits="userSpaceOnUse" gradientTransform="translate(99.597 118.597) rotate(150.028) scale(4.06193)">
<stop stop-color="white" stop-opacity="0.53"/>
<stop offset="0.22" stop-color="white" stop-opacity="0.39"/>
<stop offset="0.58" stop-color="white" stop-opacity="0.18"/>
<stop offset="0.85" stop-color="white" stop-opacity="0.05"/>
<stop offset="1" stop-color="white" stop-opacity="0"/>
</radialGradient>
<radialGradient id="paint37_radial_1_506" cx="0" cy="0" r="1" gradientUnits="userSpaceOnUse" gradientTransform="translate(106.633 122.727) rotate(150.028) scale(13.7216 0.960514)">
<stop stop-color="white" stop-opacity="0.53"/>
<stop offset="0.22" stop-color="white" stop-opacity="0.39"/>
<stop offset="0.58" stop-color="white" stop-opacity="0.18"/>
<stop offset="0.85" stop-color="white" stop-opacity="0.05"/>
<stop offset="1" stop-color="white" stop-opacity="0"/>
</radialGradient>
<radialGradient id="paint38_radial_1_506" cx="0" cy="0" r="1" gradientUnits="userSpaceOnUse" gradientTransform="translate(123.1 112.217) rotate(-119.94) scale(13.7216 0.960515)">
<stop stop-color="white" stop-opacity="0.53"/>
<stop offset="0.22" stop-color="white" stop-opacity="0.39"/>
<stop offset="0.58" stop-color="white" stop-opacity="0.18"/>
<stop offset="0.85" stop-color="white" stop-opacity="0.05"/>
<stop offset="1" stop-color="white" stop-opacity="0"/>
</radialGradient>
<radialGradient id="paint39_radial_1_506" cx="0" cy="0" r="1" gradientUnits="userSpaceOnUse" gradientTransform="translate(110.4 108.998) rotate(-161.664) scale(9.47519 0.663632)">
<stop stop-color="white" stop-opacity="0.53"/>
<stop offset="0.22" stop-color="white" stop-opacity="0.39"/>
<stop offset="0.58" stop-color="white" stop-opacity="0.18"/>
<stop offset="0.85" stop-color="white" stop-opacity="0.05"/>
<stop offset="1" stop-color="white" stop-opacity="0"/>
</radialGradient>
<radialGradient id="paint40_radial_1_506" cx="0" cy="0" r="1" gradientUnits="userSpaceOnUse" gradientTransform="translate(125 112.157) rotate(-71.5242) scale(9.49752 0.662073)">
<stop stop-color="white" stop-opacity="0.53"/>
<stop offset="0.22" stop-color="white" stop-opacity="0.39"/>
<stop offset="0.58" stop-color="white" stop-opacity="0.18"/>
<stop offset="0.85" stop-color="white" stop-opacity="0.05"/>
<stop offset="1" stop-color="white" stop-opacity="0"/>
</radialGradient>
<radialGradient id="paint41_radial_1_506" cx="0" cy="0" r="1" gradientUnits="userSpaceOnUse" gradientTransform="translate(106.073 121.783) rotate(150.028) scale(13.3074 13.3074)">
<stop offset="0.61" stop-color="white" stop-opacity="0"/>
<stop offset="0.71" stop-color="white" stop-opacity="0.01"/>
<stop offset="0.74" stop-color="white" stop-opacity="0.03"/>
<stop offset="0.77" stop-color="white" stop-opacity="0.08"/>
<stop offset="0.79" stop-color="white" stop-opacity="0.15"/>
<stop offset="0.82" stop-color="white" stop-opacity="0.08"/>
<stop offset="0.85" stop-color="white" stop-opacity="0.03"/>
<stop offset="0.89" stop-color="white" stop-opacity="0.01"/>
<stop offset="1" stop-color="white" stop-opacity="0"/>
</radialGradient>
<linearGradient id="paint42_linear_1_506" x1="94.0479" y1="105.157" x2="89.9643" y2="94.0227" gradientUnits="userSpaceOnUse">
<stop stop-color="white"/>
<stop offset="1" stop-color="#4D4B4B"/>
</linearGradient>
<linearGradient id="paint43_linear_1_506" x1="97.0376" y1="100.818" x2="86.8856" y2="98.0897" gradientUnits="userSpaceOnUse">
<stop stop-color="white"/>
<stop offset="1" stop-color="#4D4B4B"/>
</linearGradient>
<linearGradient id="paint44_linear_1_506" x1="90.6775" y1="95.54" x2="93.2372" y2="103.335" gradientUnits="userSpaceOnUse">
<stop stop-color="white"/>
<stop offset="1" stop-color="#4D4B4B"/>
</linearGradient>
<radialGradient id="paint45_radial_1_506" cx="0" cy="0" r="1" gradientUnits="userSpaceOnUse" gradientTransform="translate(91.9616 99.4538) rotate(-164.956) scale(3.80152 3.80365)">
<stop stop-color="#42A7FF"/>
<stop offset="0.16" stop-color="#41A3FA"/>
<stop offset="0.35" stop-color="#3D96ED"/>
<stop offset="0.54" stop-color="#3880D6"/>
<stop offset="0.74" stop-color="#2F62B7"/>
<stop offset="0.94" stop-color="#253C8F"/>
<stop offset="1" stop-color="#223082"/>
</radialGradient>
<radialGradient id="paint46_radial_1_506" cx="0" cy="0" r="1" gradientUnits="userSpaceOnUse" gradientTransform="translate(90.601 103.672) rotate(-164.956) scale(0.670291 0.670667)">
<stop stop-color="white"/>
<stop offset="1" stop-color="#6C6A6A"/>
</radialGradient>
<radialGradient id="paint47_radial_1_506" cx="0" cy="0" r="1" gradientUnits="userSpaceOnUse" gradientTransform="translate(90.7497 103.949) rotate(-164.956) scale(0.282936 0.283092)">
<stop stop-color="white"/>
<stop offset="1" stop-color="#6C6A6A"/>
</radialGradient>
<radialGradient id="paint48_radial_1_506" cx="0" cy="0" r="1" gradientUnits="userSpaceOnUse" gradientTransform="translate(88.0158 101.477) rotate(-119.94) scale(0.670479)">
<stop stop-color="white"/>
<stop offset="1" stop-color="#6C6A6A"/>
</radialGradient>
<radialGradient id="paint49_radial_1_506" cx="0" cy="0" r="1" gradientUnits="userSpaceOnUse" gradientTransform="translate(87.9233 101.775) rotate(-119.94) scale(0.283016)">
<stop stop-color="white"/>
<stop offset="1" stop-color="#6C6A6A"/>
</radialGradient>
<radialGradient id="paint50_radial_1_506" cx="0" cy="0" r="1" gradientUnits="userSpaceOnUse" gradientTransform="translate(87.7406 98.0997) rotate(-74.956) scale(0.670661 0.670292)">
<stop stop-color="white"/>
<stop offset="1" stop-color="#6C6A6A"/>
</radialGradient>
<radialGradient id="paint51_radial_1_506" cx="0" cy="0" r="1" gradientUnits="userSpaceOnUse" gradientTransform="translate(87.4635 98.2484) rotate(-74.956) scale(0.283099 0.282938)">
<stop stop-color="white"/>
<stop offset="1" stop-color="#6C6A6A"/>
</radialGradient>
<radialGradient id="paint52_radial_1_506" cx="0" cy="0" r="1" gradientUnits="userSpaceOnUse" gradientTransform="translate(89.9305 95.5083) rotate(-29.972) scale(0.670479)">
<stop stop-color="white"/>
<stop offset="1" stop-color="#6C6A6A"/>
</radialGradient>
<radialGradient id="paint53_radial_1_506" cx="0" cy="0" r="1" gradientUnits="userSpaceOnUse" gradientTransform="translate(89.6323 95.4158) rotate(-29.972) scale(0.283015)">
<stop stop-color="white"/>
<stop offset="1" stop-color="#6C6A6A"/>
</radialGradient>
<radialGradient id="paint54_radial_1_506" cx="0" cy="0" r="1" gradientUnits="userSpaceOnUse" gradientTransform="translate(93.3113 95.2363) rotate(15.044) scale(0.670292 0.670664)">
<stop stop-color="white"/>
<stop offset="1" stop-color="#6C6A6A"/>
</radialGradient>
<radialGradient id="paint55_radial_1_506" cx="0" cy="0" r="1" gradientUnits="userSpaceOnUse" gradientTransform="translate(93.1659 94.96) rotate(15.044) scale(0.282937 0.283092)">
<stop stop-color="white"/>
<stop offset="1" stop-color="#6C6A6A"/>
</radialGradient>
<radialGradient id="paint56_radial_1_506" cx="0" cy="0" r="1" gradientUnits="userSpaceOnUse" gradientTransform="translate(95.8955 97.4222) rotate(60.0604) scale(0.670481)">
<stop stop-color="white"/>
<stop offset="1" stop-color="#6C6A6A"/>
</radialGradient>
<radialGradient id="paint57_radial_1_506" cx="0" cy="0" r="1" gradientUnits="userSpaceOnUse" gradientTransform="translate(95.9881 97.1238) rotate(60.0601) scale(0.283016)">
<stop stop-color="white"/>
<stop offset="1" stop-color="#6C6A6A"/>
</radialGradient>
<radialGradient id="paint58_radial_1_506" cx="0" cy="0" r="1" gradientUnits="userSpaceOnUse" gradientTransform="translate(96.1749 100.81) rotate(105.044) scale(0.670666 0.670288)">
<stop stop-color="white"/>
<stop offset="1" stop-color="#6C6A6A"/>
</radialGradient>
<radialGradient id="paint59_radial_1_506" cx="0" cy="0" r="1" gradientUnits="userSpaceOnUse" gradientTransform="translate(96.4513 100.664) rotate(105.044) scale(0.283094 0.282937)">
<stop stop-color="white"/>
<stop offset="1" stop-color="#6C6A6A"/>
</radialGradient>
<radialGradient id="paint60_radial_1_506" cx="0" cy="0" r="1" gradientUnits="userSpaceOnUse" gradientTransform="translate(93.9808 103.391) rotate(150.028) scale(0.670476)">
<stop stop-color="white"/>
<stop offset="1" stop-color="#6C6A6A"/>
</radialGradient>
<radialGradient id="paint61_radial_1_506" cx="0" cy="0" r="1" gradientUnits="userSpaceOnUse" gradientTransform="translate(94.279 103.483) rotate(150.028) scale(0.283016)">
<stop stop-color="white"/>
<stop offset="1" stop-color="#6C6A6A"/>
</radialGradient>
<radialGradient id="paint62_radial_1_506" cx="0" cy="0" r="1" gradientUnits="userSpaceOnUse" gradientTransform="translate(95.8759 99.1991) rotate(150.028) scale(6.59474 6.59474)">
<stop stop-color="white" stop-opacity="0.53"/>
<stop offset="0.22" stop-color="white" stop-opacity="0.39"/>
<stop offset="0.58" stop-color="white" stop-opacity="0.18"/>
<stop offset="0.85" stop-color="white" stop-opacity="0.05"/>
<stop offset="1" stop-color="white" stop-opacity="0"/>
</radialGradient>
<radialGradient id="paint63_radial_1_506" cx="0" cy="0" r="1" gradientUnits="userSpaceOnUse" gradientTransform="translate(90.3847 99.0456) rotate(150.028) scale(2.22706)">
<stop stop-color="white" stop-opacity="0.53"/>
<stop offset="0.22" stop-color="white" stop-opacity="0.39"/>
<stop offset="0.58" stop-color="white" stop-opacity="0.18"/>
<stop offset="0.85" stop-color="white" stop-opacity="0.05"/>
<stop offset="1" stop-color="white" stop-opacity="0"/>
</radialGradient>
<radialGradient id="paint64_radial_1_506" cx="0" cy="0" r="1" gradientUnits="userSpaceOnUse" gradientTransform="translate(93.7416 100.438) rotate(150.028) scale(7.5277 0.526939)">
<stop stop-color="white" stop-opacity="0.53"/>
<stop offset="0.22" stop-color="white" stop-opacity="0.39"/>
<stop offset="0.58" stop-color="white" stop-opacity="0.18"/>
<stop offset="0.85" stop-color="white" stop-opacity="0.05"/>
<stop offset="1" stop-color="white" stop-opacity="0"/>
</radialGradient>
<radialGradient id="paint65_radial_1_506" cx="0" cy="0" r="1" gradientUnits="userSpaceOnUse" gradientTransform="translate(110.946 91.1237) rotate(-119.94) scale(7.5277 0.526939)">
<stop stop-color="white" stop-opacity="0.53"/>
<stop offset="0.22" stop-color="white" stop-opacity="0.39"/>
<stop offset="0.58" stop-color="white" stop-opacity="0.18"/>
<stop offset="0.85" stop-color="white" stop-opacity="0.05"/>
<stop offset="1" stop-color="white" stop-opacity="0"/>
</radialGradient>
<radialGradient id="paint66_radial_1_506" cx="0" cy="0" r="1" gradientUnits="userSpaceOnUse" gradientTransform="translate(83.9402 82.1432) rotate(-161.52) scale(5.20825 0.363472)">
<stop stop-color="white" stop-opacity="0.53"/>
<stop offset="0.22" stop-color="white" stop-opacity="0.39"/>
<stop offset="0.58" stop-color="white" stop-opacity="0.18"/>
<stop offset="0.85" stop-color="white" stop-opacity="0.05"/>
<stop offset="1" stop-color="white" stop-opacity="0"/>
</radialGradient>
<radialGradient id="paint67_radial_1_506" cx="0" cy="0" r="1" gradientUnits="userSpaceOnUse" gradientTransform="translate(111.598 91.7786) rotate(-71.5242) scale(5.21115 0.363269)">
<stop stop-color="white" stop-opacity="0.53"/>
<stop offset="0.22" stop-color="white" stop-opacity="0.39"/>
<stop offset="0.58" stop-color="white" stop-opacity="0.18"/>
<stop offset="0.85" stop-color="white" stop-opacity="0.05"/>
<stop offset="1" stop-color="white" stop-opacity="0"/>
</radialGradient>
<radialGradient id="paint68_radial_1_506" cx="0" cy="0" r="1" gradientUnits="userSpaceOnUse" gradientTransform="translate(93.9381 100.795) rotate(150.028) scale(7.30204 7.30204)">
<stop offset="0.61" stop-color="white" stop-opacity="0"/>
<stop offset="0.71" stop-color="white" stop-opacity="0.01"/>
<stop offset="0.74" stop-color="white" stop-opacity="0.03"/>
<stop offset="0.77" stop-color="white" stop-opacity="0.08"/>
<stop offset="0.79" stop-color="white" stop-opacity="0.15"/>
<stop offset="0.82" stop-color="white" stop-opacity="0.08"/>
<stop offset="0.85" stop-color="white" stop-opacity="0.03"/>
<stop offset="0.89" stop-color="white" stop-opacity="0.01"/>
<stop offset="1" stop-color="white" stop-opacity="0"/>
</radialGradient>
<linearGradient id="paint69_linear_1_506" x1="127.249" y1="149.79" x2="115.887" y2="132.623" gradientUnits="userSpaceOnUse">
<stop/>
<stop offset="0.05" stop-color="#181818"/>
<stop offset="0.2" stop-color="#545454"/>
<stop offset="0.35" stop-color="#888888"/>
<stop offset="0.5" stop-color="#B3B3B3"/>
<stop offset="0.64" stop-color="#D4D4D4"/>
<stop offset="0.77" stop-color="#ECECEC"/>
<stop offset="0.89" stop-color="#FAFAFA"/>
<stop offset="1" stop-color="white"/>
</linearGradient>
<radialGradient id="paint70_radial_1_506" cx="0" cy="0" r="1" gradientUnits="userSpaceOnUse" gradientTransform="translate(67.472 56.0382) rotate(150.028) scale(11.6098 12.3508)">
<stop stop-color="#D4D4D4"/>
<stop offset="0.14" stop-color="#CFCFCF"/>
<stop offset="0.29" stop-color="#C2C2C2"/>
<stop offset="0.45" stop-color="#ABABAB"/>
<stop offset="0.62" stop-color="#8C8C8C"/>
<stop offset="0.79" stop-color="#646464"/>
<stop offset="0.83" stop-color="#595959"/>
<stop offset="0.9" stop-color="#5B5B5B"/>
<stop offset="0.94" stop-color="#636363"/>
<stop offset="0.97" stop-color="#717171"/>
<stop offset="0.99" stop-color="#848484"/>
<stop offset="1" stop-color="#8C8C8C"/>
</radialGradient>
<clipPath id="clip0_1_506">
<rect width="126.285" height="126.285" fill="white" transform="translate(155.649 33.6052) rotate(105.044)"/>
</clipPath>
</defs>
</svg>
